<svg width="1430" height="41" viewBox="0 0 1430 41" fill="none" xmlns="http://www.w3.org/2000/svg">
<g clip-path="url(#clip0_1_6324)">
<path opacity="0.2" d="M1.5 0.265625H0.5V40.2656H1.5V0.265625Z" fill="white"/>
<path opacity="0.2" d="M8.5 23.2656H7.5V40.2656H8.5V23.2656Z" fill="white"/>
<path opacity="0.2" d="M15.5 15.2656H14.5V40.2656H15.5V15.2656Z" fill="white"/>
<path opacity="0.2" d="M22.5 23.2656H21.5V40.2656H22.5V23.2656Z" fill="white"/>
<path opacity="0.2" d="M29.5 15.2656H28.5V40.2656H29.5V15.2656Z" fill="white"/>
<path opacity="0.2" d="M36.5 23.2656H35.5V40.2656H36.5V23.2656Z" fill="white"/>
<path opacity="0.2" d="M43.5 15.2656H42.5V40.2656H43.5V15.2656Z" fill="white"/>
<path opacity="0.2" d="M50.5 23.2656H49.5V40.2656H50.5V23.2656Z" fill="white"/>
<path opacity="0.2" d="M57.5 0.265625H56.5V40.2656H57.5V0.265625Z" fill="white"/>
<path opacity="0.2" d="M64.5 23.2656H63.5V40.2656H64.5V23.2656Z" fill="white"/>
<path opacity="0.2" d="M71.5 15.2656H70.5V40.2656H71.5V15.2656Z" fill="white"/>
<path opacity="0.2" d="M78.5 23.2656H77.5V40.2656H78.5V23.2656Z" fill="white"/>
<path opacity="0.2" d="M85.5 15.2656H84.5V40.2656H85.5V15.2656Z" fill="white"/>
<path opacity="0.2" d="M92.5 23.2656H91.5V40.2656H92.5V23.2656Z" fill="white"/>
<path opacity="0.2" d="M99.5 15.2656H98.5V40.2656H99.5V15.2656Z" fill="white"/>
<path opacity="0.2" d="M106.5 23.2656H105.5V40.2656H106.5V23.2656Z" fill="white"/>
<path opacity="0.2" d="M113.5 0.265625H112.5V40.2656H113.5V0.265625Z" fill="white"/>
<path opacity="0.2" d="M120.5 23.2656H119.5V40.2656H120.5V23.2656Z" fill="white"/>
<path opacity="0.2" d="M127.5 15.2656H126.5V40.2656H127.5V15.2656Z" fill="white"/>
<path opacity="0.2" d="M134.5 23.2656H133.5V40.2656H134.5V23.2656Z" fill="white"/>
<path opacity="0.2" d="M141.5 15.2656H140.5V40.2656H141.5V15.2656Z" fill="white"/>
<path opacity="0.2" d="M148.5 23.2656H147.5V40.2656H148.5V23.2656Z" fill="white"/>
<path opacity="0.2" d="M155.5 15.2656H154.5V40.2656H155.5V15.2656Z" fill="white"/>
<path opacity="0.2" d="M162.5 23.2656H161.5V40.2656H162.5V23.2656Z" fill="white"/>
<path opacity="0.2" d="M169.5 0.265625H168.5V40.2656H169.5V0.265625Z" fill="white"/>
<path opacity="0.2" d="M176.5 23.2656H175.5V40.2656H176.5V23.2656Z" fill="white"/>
<path opacity="0.2" d="M183.5 15.2656H182.5V40.2656H183.5V15.2656Z" fill="white"/>
<path opacity="0.2" d="M190.5 23.2656H189.5V40.2656H190.5V23.2656Z" fill="white"/>
<path opacity="0.2" d="M197.5 15.2656H196.5V40.2656H197.5V15.2656Z" fill="white"/>
<path opacity="0.2" d="M204.5 23.2656H203.5V40.2656H204.5V23.2656Z" fill="white"/>
<path opacity="0.2" d="M211.5 15.2656H210.5V40.2656H211.5V15.2656Z" fill="white"/>
<path opacity="0.2" d="M218.5 23.2656H217.5V40.2656H218.5V23.2656Z" fill="white"/>
<path opacity="0.2" d="M225.5 0.265625H224.5V40.2656H225.5V0.265625Z" fill="white"/>
<path opacity="0.2" d="M232.5 23.2656H231.5V40.2656H232.5V23.2656Z" fill="white"/>
<path opacity="0.2" d="M239.5 15.2656H238.5V40.2656H239.5V15.2656Z" fill="white"/>
<path opacity="0.2" d="M246.5 23.2656H245.5V40.2656H246.5V23.2656Z" fill="white"/>
<path opacity="0.2" d="M253.5 15.2656H252.5V40.2656H253.5V15.2656Z" fill="white"/>
<path opacity="0.2" d="M260.5 23.2656H259.5V40.2656H260.5V23.2656Z" fill="white"/>
<path opacity="0.2" d="M267.5 15.2656H266.5V40.2656H267.5V15.2656Z" fill="white"/>
<path opacity="0.2" d="M274.5 23.2656H273.5V40.2656H274.5V23.2656Z" fill="white"/>
<path opacity="0.2" d="M281.5 0.265625H280.5V40.2656H281.5V0.265625Z" fill="white"/>
<path opacity="0.2" d="M288.5 23.2656H287.5V40.2656H288.5V23.2656Z" fill="white"/>
<path opacity="0.2" d="M295.5 15.2656H294.5V40.2656H295.5V15.2656Z" fill="white"/>
<path opacity="0.2" d="M302.5 23.2656H301.5V40.2656H302.5V23.2656Z" fill="white"/>
<path opacity="0.2" d="M309.5 15.2656H308.5V40.2656H309.5V15.2656Z" fill="white"/>
<path opacity="0.2" d="M316.5 23.2656H315.5V40.2656H316.5V23.2656Z" fill="white"/>
<path opacity="0.2" d="M323.5 15.2656H322.5V40.2656H323.5V15.2656Z" fill="white"/>
<path opacity="0.2" d="M330.5 23.2656H329.5V40.2656H330.5V23.2656Z" fill="white"/>
<path opacity="0.2" d="M337.5 0.265625H336.5V40.2656H337.5V0.265625Z" fill="white"/>
<path opacity="0.2" d="M344.5 23.2656H343.5V40.2656H344.5V23.2656Z" fill="white"/>
<path opacity="0.2" d="M351.5 15.2656H350.5V40.2656H351.5V15.2656Z" fill="white"/>
<path opacity="0.2" d="M358.5 23.2656H357.5V40.2656H358.5V23.2656Z" fill="white"/>
<path opacity="0.2" d="M365.5 15.2656H364.5V40.2656H365.5V15.2656Z" fill="white"/>
<path opacity="0.2" d="M372.5 23.2656H371.5V40.2656H372.5V23.2656Z" fill="white"/>
<path opacity="0.2" d="M379.5 15.2656H378.5V40.2656H379.5V15.2656Z" fill="white"/>
<path opacity="0.2" d="M386.5 23.2656H385.5V40.2656H386.5V23.2656Z" fill="white"/>
<path opacity="0.2" d="M393.5 0.265625H392.5V40.2656H393.5V0.265625Z" fill="white"/>
<path opacity="0.2" d="M400.5 23.2656H399.5V40.2656H400.5V23.2656Z" fill="white"/>
<path opacity="0.2" d="M407.5 15.2656H406.5V40.2656H407.5V15.2656Z" fill="white"/>
<path opacity="0.2" d="M414.5 23.2656H413.5V40.2656H414.5V23.2656Z" fill="white"/>
<path opacity="0.2" d="M421.5 15.2656H420.5V40.2656H421.5V15.2656Z" fill="white"/>
<path opacity="0.2" d="M428.5 23.2656H427.5V40.2656H428.5V23.2656Z" fill="white"/>
<path opacity="0.2" d="M435.5 15.2656H434.5V40.2656H435.5V15.2656Z" fill="white"/>
<path opacity="0.2" d="M442.5 23.2656H441.5V40.2656H442.5V23.2656Z" fill="white"/>
<path opacity="0.2" d="M449.5 0.265625H448.5V40.2656H449.5V0.265625Z" fill="white"/>
<path opacity="0.2" d="M456.5 23.2656H455.5V40.2656H456.5V23.2656Z" fill="white"/>
<path opacity="0.2" d="M463.5 15.2656H462.5V40.2656H463.5V15.2656Z" fill="white"/>
<path opacity="0.2" d="M470.5 23.2656H469.5V40.2656H470.5V23.2656Z" fill="white"/>
<path opacity="0.2" d="M477.5 15.2656H476.5V40.2656H477.5V15.2656Z" fill="white"/>
<path opacity="0.2" d="M484.5 23.2656H483.5V40.2656H484.5V23.2656Z" fill="white"/>
<path opacity="0.2" d="M491.5 15.2656H490.5V40.2656H491.5V15.2656Z" fill="white"/>
<path opacity="0.2" d="M498.5 23.2656H497.5V40.2656H498.5V23.2656Z" fill="white"/>
<path opacity="0.2" d="M505.5 0.265625H504.5V40.2656H505.5V0.265625Z" fill="white"/>
<path opacity="0.2" d="M512.5 23.2656H511.5V40.2656H512.5V23.2656Z" fill="white"/>
<path opacity="0.2" d="M519.5 15.2656H518.5V40.2656H519.5V15.2656Z" fill="white"/>
<path opacity="0.2" d="M526.5 23.2656H525.5V40.2656H526.5V23.2656Z" fill="white"/>
<path opacity="0.2" d="M533.5 15.2656H532.5V40.2656H533.5V15.2656Z" fill="white"/>
<path opacity="0.2" d="M540.5 23.2656H539.5V40.2656H540.5V23.2656Z" fill="white"/>
<path opacity="0.2" d="M547.5 15.2656H546.5V40.2656H547.5V15.2656Z" fill="white"/>
<path opacity="0.2" d="M554.5 23.2656H553.5V40.2656H554.5V23.2656Z" fill="white"/>
<path opacity="0.2" d="M561.5 0.265625H560.5V40.2656H561.5V0.265625Z" fill="white"/>
<path opacity="0.2" d="M568.5 23.2656H567.5V40.2656H568.5V23.2656Z" fill="white"/>
<path opacity="0.2" d="M575.5 15.2656H574.5V40.2656H575.5V15.2656Z" fill="white"/>
<path opacity="0.2" d="M582.5 23.2656H581.5V40.2656H582.5V23.2656Z" fill="white"/>
<path opacity="0.2" d="M589.5 15.2656H588.5V40.2656H589.5V15.2656Z" fill="white"/>
<path opacity="0.2" d="M596.5 23.2656H595.5V40.2656H596.5V23.2656Z" fill="white"/>
<path opacity="0.2" d="M603.5 15.2656H602.5V40.2656H603.5V15.2656Z" fill="white"/>
<path opacity="0.2" d="M610.5 23.2656H609.5V40.2656H610.5V23.2656Z" fill="white"/>
<path opacity="0.2" d="M617.5 0.265625H616.5V40.2656H617.5V0.265625Z" fill="white"/>
<path opacity="0.2" d="M624.5 23.2656H623.5V40.2656H624.5V23.2656Z" fill="white"/>
<path opacity="0.2" d="M631.5 15.2656H630.5V40.2656H631.5V15.2656Z" fill="white"/>
<path opacity="0.2" d="M638.5 23.2656H637.5V40.2656H638.5V23.2656Z" fill="white"/>
<path opacity="0.2" d="M645.5 15.2656H644.5V40.2656H645.5V15.2656Z" fill="white"/>
<path opacity="0.2" d="M652.5 23.2656H651.5V40.2656H652.5V23.2656Z" fill="white"/>
<path opacity="0.2" d="M659.5 15.2656H658.5V40.2656H659.5V15.2656Z" fill="white"/>
<path opacity="0.2" d="M666.5 23.2656H665.5V40.2656H666.5V23.2656Z" fill="white"/>
<path opacity="0.2" d="M673.5 0.265625H672.5V40.2656H673.5V0.265625Z" fill="white"/>
<path opacity="0.2" d="M680.5 23.2656H679.5V40.2656H680.5V23.2656Z" fill="white"/>
<path opacity="0.2" d="M687.5 15.2656H686.5V40.2656H687.5V15.2656Z" fill="white"/>
<path opacity="0.2" d="M694.5 23.2656H693.5V40.2656H694.5V23.2656Z" fill="white"/>
<path opacity="0.2" d="M701.5 15.2656H700.5V40.2656H701.5V15.2656Z" fill="white"/>
<path opacity="0.2" d="M708.5 23.2656H707.5V40.2656H708.5V23.2656Z" fill="white"/>
<path opacity="0.2" d="M715.5 15.2656H714.5V40.2656H715.5V15.2656Z" fill="white"/>
<path opacity="0.2" d="M722.5 23.2656H721.5V40.2656H722.5V23.2656Z" fill="white"/>
<path opacity="0.2" d="M729.5 0.265625H728.5V40.2656H729.5V0.265625Z" fill="white"/>
<path opacity="0.2" d="M736.5 23.2656H735.5V40.2656H736.5V23.2656Z" fill="white"/>
<path opacity="0.2" d="M743.5 15.2656H742.5V40.2656H743.5V15.2656Z" fill="white"/>
<path opacity="0.2" d="M750.5 23.2656H749.5V40.2656H750.5V23.2656Z" fill="white"/>
<path opacity="0.2" d="M757.5 15.2656H756.5V40.2656H757.5V15.2656Z" fill="white"/>
<path opacity="0.2" d="M764.5 23.2656H763.5V40.2656H764.5V23.2656Z" fill="white"/>
<path opacity="0.2" d="M771.5 15.2656H770.5V40.2656H771.5V15.2656Z" fill="white"/>
<path opacity="0.2" d="M778.5 23.2656H777.5V40.2656H778.5V23.2656Z" fill="white"/>
<path opacity="0.2" d="M785.5 0.265625H784.5V40.2656H785.5V0.265625Z" fill="white"/>
<path opacity="0.2" d="M792.5 23.2656H791.5V40.2656H792.5V23.2656Z" fill="white"/>
<path opacity="0.2" d="M799.5 15.2656H798.5V40.2656H799.5V15.2656Z" fill="white"/>
<path opacity="0.2" d="M806.5 23.2656H805.5V40.2656H806.5V23.2656Z" fill="white"/>
<path opacity="0.2" d="M813.5 15.2656H812.5V40.2656H813.5V15.2656Z" fill="white"/>
<path opacity="0.2" d="M820.5 23.2656H819.5V40.2656H820.5V23.2656Z" fill="white"/>
<path opacity="0.2" d="M827.5 15.2656H826.5V40.2656H827.5V15.2656Z" fill="white"/>
<path opacity="0.2" d="M834.5 23.2656H833.5V40.2656H834.5V23.2656Z" fill="white"/>
<path opacity="0.2" d="M841.5 0.265625H840.5V40.2656H841.5V0.265625Z" fill="white"/>
<path opacity="0.2" d="M848.5 23.2656H847.5V40.2656H848.5V23.2656Z" fill="white"/>
<path opacity="0.2" d="M855.5 15.2656H854.5V40.2656H855.5V15.2656Z" fill="white"/>
<path opacity="0.2" d="M862.5 23.2656H861.5V40.2656H862.5V23.2656Z" fill="white"/>
<path opacity="0.2" d="M869.5 15.2656H868.5V40.2656H869.5V15.2656Z" fill="white"/>
<path opacity="0.2" d="M876.5 23.2656H875.5V40.2656H876.5V23.2656Z" fill="white"/>
<path opacity="0.2" d="M883.5 15.2656H882.5V40.2656H883.5V15.2656Z" fill="white"/>
<path opacity="0.2" d="M890.5 23.2656H889.5V40.2656H890.5V23.2656Z" fill="white"/>
<path opacity="0.2" d="M897.5 0.265625H896.5V40.2656H897.5V0.265625Z" fill="white"/>
<path opacity="0.2" d="M904.5 23.2656H903.5V40.2656H904.5V23.2656Z" fill="white"/>
<path opacity="0.2" d="M911.5 15.2656H910.5V40.2656H911.5V15.2656Z" fill="white"/>
<path opacity="0.2" d="M918.5 23.2656H917.5V40.2656H918.5V23.2656Z" fill="white"/>
<path opacity="0.2" d="M925.5 15.2656H924.5V40.2656H925.5V15.2656Z" fill="white"/>
<path opacity="0.2" d="M932.5 23.2656H931.5V40.2656H932.5V23.2656Z" fill="white"/>
<path opacity="0.2" d="M939.5 15.2656H938.5V40.2656H939.5V15.2656Z" fill="white"/>
<path opacity="0.2" d="M946.5 23.2656H945.5V40.2656H946.5V23.2656Z" fill="white"/>
<path opacity="0.2" d="M953.5 0.265625H952.5V40.2656H953.5V0.265625Z" fill="white"/>
<path opacity="0.2" d="M960.5 23.2656H959.5V40.2656H960.5V23.2656Z" fill="white"/>
<path opacity="0.2" d="M967.5 15.2656H966.5V40.2656H967.5V15.2656Z" fill="white"/>
<path opacity="0.2" d="M974.5 23.2656H973.5V40.2656H974.5V23.2656Z" fill="white"/>
<path opacity="0.2" d="M981.5 15.2656H980.5V40.2656H981.5V15.2656Z" fill="white"/>
<path opacity="0.2" d="M988.5 23.2656H987.5V40.2656H988.5V23.2656Z" fill="white"/>
<path opacity="0.2" d="M995.5 15.2656H994.5V40.2656H995.5V15.2656Z" fill="white"/>
<path opacity="0.2" d="M1002.5 23.2656H1001.5V40.2656H1002.5V23.2656Z" fill="white"/>
<path opacity="0.2" d="M1009.5 0.265625H1008.5V40.2656H1009.5V0.265625Z" fill="white"/>
<path opacity="0.2" d="M1016.5 23.2656H1015.5V40.2656H1016.5V23.2656Z" fill="white"/>
<path opacity="0.2" d="M1023.5 15.2656H1022.5V40.2656H1023.5V15.2656Z" fill="white"/>
<path opacity="0.2" d="M1030.5 23.2656H1029.5V40.2656H1030.5V23.2656Z" fill="white"/>
<path opacity="0.2" d="M1037.5 15.2656H1036.5V40.2656H1037.5V15.2656Z" fill="white"/>
<path opacity="0.2" d="M1044.5 23.2656H1043.5V40.2656H1044.5V23.2656Z" fill="white"/>
<path opacity="0.2" d="M1051.5 15.2656H1050.5V40.2656H1051.5V15.2656Z" fill="white"/>
<path opacity="0.2" d="M1058.5 23.2656H1057.5V40.2656H1058.5V23.2656Z" fill="white"/>
<path opacity="0.2" d="M1065.5 0.265625H1064.5V40.2656H1065.5V0.265625Z" fill="white"/>
<path opacity="0.2" d="M1072.5 23.2656H1071.5V40.2656H1072.5V23.2656Z" fill="white"/>
<path opacity="0.2" d="M1079.5 15.2656H1078.5V40.2656H1079.5V15.2656Z" fill="white"/>
<path opacity="0.2" d="M1086.5 23.2656H1085.5V40.2656H1086.5V23.2656Z" fill="white"/>
<path opacity="0.2" d="M1093.5 15.2656H1092.5V40.2656H1093.5V15.2656Z" fill="white"/>
<path opacity="0.2" d="M1100.5 23.2656H1099.5V40.2656H1100.5V23.2656Z" fill="white"/>
<path opacity="0.2" d="M1107.5 15.2656H1106.5V40.2656H1107.5V15.2656Z" fill="white"/>
<path opacity="0.2" d="M1114.5 23.2656H1113.5V40.2656H1114.5V23.2656Z" fill="white"/>
<path opacity="0.2" d="M1121.5 0.265625H1120.5V40.2656H1121.5V0.265625Z" fill="white"/>
<path opacity="0.2" d="M1128.5 23.2656H1127.5V40.2656H1128.5V23.2656Z" fill="white"/>
<path opacity="0.2" d="M1135.5 15.2656H1134.5V40.2656H1135.5V15.2656Z" fill="white"/>
<path opacity="0.2" d="M1142.5 23.2656H1141.5V40.2656H1142.5V23.2656Z" fill="white"/>
<path opacity="0.2" d="M1149.5 15.2656H1148.5V40.2656H1149.5V15.2656Z" fill="white"/>
<path opacity="0.2" d="M1156.5 23.2656H1155.5V40.2656H1156.5V23.2656Z" fill="white"/>
<path opacity="0.2" d="M1163.5 15.2656H1162.5V40.2656H1163.5V15.2656Z" fill="white"/>
<path opacity="0.2" d="M1170.5 23.2656H1169.5V40.2656H1170.5V23.2656Z" fill="white"/>
<path opacity="0.2" d="M1177.5 0.265625H1176.5V40.2656H1177.5V0.265625Z" fill="white"/>
<path opacity="0.2" d="M1184.5 23.2656H1183.5V40.2656H1184.5V23.2656Z" fill="white"/>
<path opacity="0.2" d="M1191.5 15.2656H1190.5V40.2656H1191.5V15.2656Z" fill="white"/>
<path opacity="0.2" d="M1198.5 23.2656H1197.5V40.2656H1198.5V23.2656Z" fill="white"/>
<path opacity="0.2" d="M1205.5 15.2656H1204.5V40.2656H1205.5V15.2656Z" fill="white"/>
<path opacity="0.2" d="M1212.5 23.2656H1211.5V40.2656H1212.5V23.2656Z" fill="white"/>
<path opacity="0.2" d="M1219.5 15.2656H1218.5V40.2656H1219.5V15.2656Z" fill="white"/>
<path opacity="0.2" d="M1226.5 23.2656H1225.5V40.2656H1226.5V23.2656Z" fill="white"/>
<path opacity="0.2" d="M1233.5 0.265625H1232.5V40.2656H1233.5V0.265625Z" fill="white"/>
<path opacity="0.2" d="M1240.5 23.2656H1239.5V40.2656H1240.5V23.2656Z" fill="white"/>
<path opacity="0.2" d="M1247.5 15.2656H1246.5V40.2656H1247.5V15.2656Z" fill="white"/>
<path opacity="0.2" d="M1254.5 23.2656H1253.5V40.2656H1254.5V23.2656Z" fill="white"/>
<path opacity="0.2" d="M1261.5 15.2656H1260.5V40.2656H1261.5V15.2656Z" fill="white"/>
<path opacity="0.2" d="M1268.5 23.2656H1267.5V40.2656H1268.5V23.2656Z" fill="white"/>
<path opacity="0.2" d="M1275.5 15.2656H1274.5V40.2656H1275.5V15.2656Z" fill="white"/>
<path opacity="0.2" d="M1282.5 23.2656H1281.5V40.2656H1282.5V23.2656Z" fill="white"/>
<path opacity="0.2" d="M1289.5 0.265625H1288.5V40.2656H1289.5V0.265625Z" fill="white"/>
<path opacity="0.2" d="M1296.5 23.2656H1295.5V40.2656H1296.5V23.2656Z" fill="white"/>
<path opacity="0.2" d="M1303.5 15.2656H1302.5V40.2656H1303.5V15.2656Z" fill="white"/>
<path opacity="0.2" d="M1310.5 23.2656H1309.5V40.2656H1310.5V23.2656Z" fill="white"/>
<path opacity="0.2" d="M1317.5 15.2656H1316.5V40.2656H1317.5V15.2656Z" fill="white"/>
<path opacity="0.2" d="M1324.5 23.2656H1323.5V40.2656H1324.5V23.2656Z" fill="white"/>
<path opacity="0.2" d="M1331.5 15.2656H1330.5V40.2656H1331.5V15.2656Z" fill="white"/>
<path opacity="0.2" d="M1338.5 23.2656H1337.5V40.2656H1338.5V23.2656Z" fill="white"/>
<path opacity="0.2" d="M1345.5 0.265625H1344.5V40.2656H1345.5V0.265625Z" fill="white"/>
<path opacity="0.2" d="M1352.5 23.2656H1351.5V40.2656H1352.5V23.2656Z" fill="white"/>
<path opacity="0.2" d="M1359.5 15.2656H1358.5V40.2656H1359.5V15.2656Z" fill="white"/>
<path opacity="0.2" d="M1366.5 23.2656H1365.5V40.2656H1366.5V23.2656Z" fill="white"/>
<path opacity="0.2" d="M1373.5 15.2656H1372.5V40.2656H1373.5V15.2656Z" fill="white"/>
<path opacity="0.2" d="M1380.5 23.2656H1379.5V40.2656H1380.5V23.2656Z" fill="white"/>
<path opacity="0.2" d="M1387.5 15.2656H1386.5V40.2656H1387.5V15.2656Z" fill="white"/>
<path opacity="0.2" d="M1394.5 23.2656H1393.5V40.2656H1394.5V23.2656Z" fill="white"/>
<path opacity="0.2" d="M1401.5 0.265625H1400.5V40.2656H1401.5V0.265625Z" fill="white"/>
<path opacity="0.2" d="M1408.5 23.2656H1407.5V40.2656H1408.5V23.2656Z" fill="white"/>
<path opacity="0.2" d="M1415.5 15.2656H1414.5V40.2656H1415.5V15.2656Z" fill="white"/>
<path opacity="0.2" d="M1422.5 23.2656H1421.5V40.2656H1422.5V23.2656Z" fill="white"/>
<path opacity="0.2" d="M1429.5 15.2656H1428.5V40.2656H1429.5V15.2656Z" fill="white"/>
</g>
<defs>
<clipPath id="clip0_1_6324">
<rect width="1429" height="40" fill="white" transform="translate(0.5 0.265625)"/>
</clipPath>
</defs>
</svg>
