<svg width="126" height="51" viewBox="0 0 126 51" fill="none" xmlns="http://www.w3.org/2000/svg">
<path d="M2.61816 7.18181H7.45481L13.9321 22.9915H14.1877L20.665 7.18181H25.5017V29H21.709V14.0107H21.5066L15.4768 28.9361H12.643L6.61319 13.9787H6.41078V29H2.61816V7.18181ZM29.8056 29V7.18181H43.996V10.495H33.758V16.4183H43.2609V19.7315H33.758V25.6868H44.0812V29H29.8056ZM47.0695 10.495V7.18181H64.4772V10.495H57.7335V29H53.8131V10.495H47.0695ZM67.9981 29H63.7794L71.4605 7.18181H76.3397L84.0315 29H79.8127L73.9853 11.6562H73.8149L67.9981 29ZM68.1366 20.4453H79.6423V23.62H68.1366V20.4453ZM86.9052 29V7.18181H90.8577V25.6868H100.467V29H86.9052ZM122.543 18.0909C122.543 20.4418 122.103 22.4553 121.222 24.1314C120.349 25.8004 119.156 27.0788 117.643 27.9666C116.137 28.8544 114.429 29.2983 112.519 29.2983C110.608 29.2983 108.896 28.8544 107.384 27.9666C105.878 27.0717 104.685 25.7898 103.804 24.1207C102.93 22.4446 102.494 20.4347 102.494 18.0909C102.494 15.7401 102.93 13.7301 103.804 12.0611C104.685 10.3849 105.878 9.10297 107.384 8.21519C108.896 7.3274 110.608 6.88351 112.519 6.88351C114.429 6.88351 116.137 7.3274 117.643 8.21519C119.156 9.10297 120.349 10.3849 121.222 12.0611C122.103 13.7301 122.543 15.7401 122.543 18.0909ZM118.57 18.0909C118.57 16.4361 118.31 15.0405 117.792 13.9041C117.281 12.7607 116.57 11.8977 115.661 11.3153C114.752 10.7259 113.705 10.4311 112.519 10.4311C111.332 10.4311 110.285 10.7259 109.376 11.3153C108.467 11.8977 107.753 12.7607 107.234 13.9041C106.723 15.0405 106.467 16.4361 106.467 18.0909C106.467 19.7457 106.723 21.1449 107.234 22.2884C107.753 23.4247 108.467 24.2876 109.376 24.8771C110.285 25.4595 111.332 25.7507 112.519 25.7507C113.705 25.7507 114.752 25.4595 115.661 24.8771C116.57 24.2876 117.281 23.4247 117.792 22.2884C118.31 21.1449 118.57 19.7457 118.57 18.0909Z" fill="black"/>
<path d="M2.82156 48H1.98633L5.16105 39.2727H6.01332L9.18804 48H8.35281L5.61701 40.3082H5.55736L2.82156 48ZM3.42241 44.6548H7.75196V45.3707H3.42241V44.6548ZM16.0837 48V39.2727H18.9005C19.5198 39.2727 20.0369 39.3849 20.4516 39.6094C20.8692 39.831 21.1832 40.1392 21.3934 40.5341C21.6065 40.9261 21.713 41.3764 21.713 41.8849C21.713 42.3935 21.6065 42.8423 21.3934 43.2315C21.1832 43.6207 20.8707 43.9247 20.4559 44.1435C20.0411 44.3622 19.5269 44.4716 18.9133 44.4716H16.5141V43.7429H18.892C19.3465 43.7429 19.7244 43.6676 20.0255 43.517C20.3295 43.3665 20.5553 43.152 20.7031 42.8736C20.8536 42.5952 20.9289 42.2656 20.9289 41.8849C20.9289 41.5043 20.8536 41.1719 20.7031 40.8878C20.5525 40.6009 20.3252 40.3793 20.0212 40.223C19.7201 40.0668 19.3394 39.9886 18.8792 39.9886H16.8806V48H16.0837ZM19.9317 44.0625L22.0795 48H21.159L19.0326 44.0625H19.9317ZM35.8893 42H35.0881C35.0285 41.7017 34.9205 41.4261 34.7643 41.1733C34.6109 40.9176 34.4177 40.6946 34.1847 40.5043C33.9518 40.3139 33.6876 40.1662 33.3921 40.0611C33.0967 39.956 32.7771 39.9034 32.4333 39.9034C31.8822 39.9034 31.3793 40.0469 30.9248 40.3338C30.4731 40.6207 30.1109 41.0426 29.8381 41.5994C29.5683 42.1534 29.4333 42.8324 29.4333 43.6364C29.4333 44.446 29.5683 45.1278 29.8381 45.6818C30.1109 46.2358 30.4731 46.6562 30.9248 46.9432C31.3793 47.2273 31.8822 47.3693 32.4333 47.3693C32.7771 47.3693 33.0967 47.3168 33.3921 47.2116C33.6876 47.1065 33.9518 46.9602 34.1847 46.7727C34.4177 46.5824 34.6109 46.3594 34.7643 46.1037C34.9205 45.848 35.0285 45.571 35.0881 45.2727H35.8893C35.8183 45.6733 35.6847 46.0469 35.4887 46.3935C35.2955 46.7372 35.0484 47.0384 34.7472 47.2969C34.4489 47.5554 34.1052 47.7571 33.716 47.902C33.3268 48.0469 32.8992 48.1193 32.4333 48.1193C31.7004 48.1193 31.0498 47.9361 30.4816 47.5696C29.9134 47.2003 29.4674 46.6804 29.1435 46.0099C28.8225 45.3395 28.662 44.5483 28.662 43.6364C28.662 42.7244 28.8225 41.9332 29.1435 41.2628C29.4674 40.5923 29.9134 40.0739 30.4816 39.7074C31.0498 39.3381 31.7004 39.1534 32.4333 39.1534C32.8992 39.1534 33.3268 39.2259 33.716 39.3707C34.1052 39.5128 34.4489 39.7145 34.7472 39.9759C35.0484 40.2344 35.2955 40.5355 35.4887 40.8793C35.6847 41.223 35.8183 41.5966 35.8893 42ZM43.1611 48V39.2727H43.958V43.2741H48.9097V39.2727H49.7065V48H48.9097V43.9901H43.958V48H43.1611ZM58.2173 39.2727V48H57.4205V39.2727H58.2173ZM65.4092 39.9886V39.2727H71.7374V39.9886H68.9717V48H68.1749V39.9886H65.4092ZM78.9314 48V39.2727H83.9939V39.9886H79.7283V43.2741H83.7254V43.9901H79.7283V47.2841H84.0791V48H78.9314ZM98.2916 42H97.4905C97.4308 41.7017 97.3229 41.4261 97.1666 41.1733C97.0132 40.9176 96.82 40.6946 96.5871 40.5043C96.3541 40.3139 96.0899 40.1662 95.7945 40.0611C95.499 39.956 95.1794 39.9034 94.8357 39.9034C94.2845 39.9034 93.7817 40.0469 93.3271 40.3338C92.8754 40.6207 92.5132 41.0426 92.2405 41.5994C91.9706 42.1534 91.8357 42.8324 91.8357 43.6364C91.8357 44.446 91.9706 45.1278 92.2405 45.6818C92.5132 46.2358 92.8754 46.6562 93.3271 46.9432C93.7817 47.2273 94.2845 47.3693 94.8357 47.3693C95.1794 47.3693 95.499 47.3168 95.7945 47.2116C96.0899 47.1065 96.3541 46.9602 96.5871 46.7727C96.82 46.5824 97.0132 46.3594 97.1666 46.1037C97.3229 45.848 97.4308 45.571 97.4905 45.2727H98.2916C98.2206 45.6733 98.0871 46.0469 97.8911 46.3935C97.6979 46.7372 97.4507 47.0384 97.1496 47.2969C96.8513 47.5554 96.5075 47.7571 96.1183 47.902C95.7291 48.0469 95.3016 48.1193 94.8357 48.1193C94.1027 48.1193 93.4521 47.9361 92.8839 47.5696C92.3158 47.2003 91.8697 46.6804 91.5459 46.0099C91.2249 45.3395 91.0643 44.5483 91.0643 43.6364C91.0643 42.7244 91.2249 41.9332 91.5459 41.2628C91.8697 40.5923 92.3158 40.0739 92.8839 39.7074C93.4521 39.3381 94.1027 39.1534 94.8357 39.1534C95.3016 39.1534 95.7291 39.2259 96.1183 39.3707C96.5075 39.5128 96.8513 39.7145 97.1496 39.9759C97.4507 40.2344 97.6979 40.5355 97.8911 40.8793C98.0871 41.223 98.2206 41.5966 98.2916 42ZM105.035 39.9886V39.2727H111.363V39.9886H108.597V48H107.8V39.9886H105.035ZM123.296 41.4545C123.247 40.9687 123.033 40.5824 122.652 40.2955C122.271 40.0085 121.793 39.8651 121.216 39.8651C120.81 39.8651 120.452 39.9347 120.142 40.0739C119.835 40.2131 119.594 40.4062 119.418 40.6534C119.244 40.8977 119.158 41.1761 119.158 41.4886C119.158 41.7188 119.207 41.9205 119.307 42.0938C119.406 42.267 119.54 42.4162 119.707 42.5412C119.878 42.6634 120.065 42.7685 120.27 42.8565C120.477 42.9446 120.686 43.0185 120.896 43.0781L121.817 43.3423C122.095 43.419 122.374 43.517 122.652 43.6364C122.93 43.7557 123.185 43.9062 123.415 44.0881C123.648 44.267 123.834 44.4872 123.973 44.7486C124.115 45.0071 124.186 45.3182 124.186 45.6818C124.186 46.1477 124.065 46.5668 123.824 46.9389C123.582 47.3111 123.236 47.6065 122.784 47.8253C122.332 48.0412 121.791 48.1491 121.161 48.1491C120.567 48.1491 120.051 48.0511 119.614 47.8551C119.176 47.6562 118.832 47.3821 118.582 47.0327C118.332 46.6832 118.192 46.2784 118.161 45.8182H118.979C119.007 46.1619 119.121 46.4531 119.32 46.6918C119.519 46.9304 119.777 47.1122 120.095 47.2372C120.413 47.3594 120.769 47.4205 121.161 47.4205C121.595 47.4205 121.982 47.348 122.32 47.2031C122.661 47.0554 122.928 46.8509 123.121 46.5895C123.317 46.3253 123.415 46.0185 123.415 45.669C123.415 45.3736 123.338 45.1264 123.185 44.9276C123.031 44.7259 122.817 44.5568 122.541 44.4205C122.269 44.2841 121.952 44.1634 121.591 44.0582L120.547 43.7514C119.862 43.5469 119.331 43.2642 118.953 42.9034C118.575 42.5426 118.386 42.0824 118.386 41.5227C118.386 41.054 118.511 40.642 118.761 40.2869C119.014 39.929 119.355 39.6506 119.784 39.4517C120.216 39.25 120.7 39.1491 121.237 39.1491C121.78 39.1491 122.26 39.2486 122.678 39.4474C123.095 39.6463 123.426 39.9205 123.671 40.2699C123.918 40.6165 124.05 41.0114 124.067 41.4545H123.296Z" fill="black"/>
</svg>
