<svg width="21" height="22" viewBox="0 0 21 22" fill="none" xmlns="http://www.w3.org/2000/svg">
<path d="M7.79721 19.0988H12.7972C16.9639 19.0988 18.6306 17.4321 18.6306 13.2654V8.26547C18.6306 4.0988 16.9639 2.43213 12.7972 2.43213H7.79721C3.63054 2.43213 1.96387 4.0988 1.96387 8.26547V13.2654C1.96387 17.4321 3.63054 19.0988 7.79721 19.0988Z" stroke="black" stroke-linecap="round" stroke-linejoin="round"/>
<path d="M10.2965 13.6824C11.9074 13.6824 13.2132 12.3766 13.2132 10.7658C13.2132 9.15495 11.9074 7.84912 10.2965 7.84912C8.68571 7.84912 7.37988 9.15495 7.37988 10.7658C7.37988 12.3766 8.68571 13.6824 10.2965 13.6824Z" stroke="black" stroke-linecap="round" stroke-linejoin="round"/>
<path d="M14.9941 6.59863H15.0037" stroke="black" stroke-width="1.5" stroke-linecap="round" stroke-linejoin="round"/>
</svg>
