<svg width="21" height="22" viewBox="0 0 21 22" fill="none" xmlns="http://www.w3.org/2000/svg">
<path d="M15.656 5.24349C16.4211 4.99241 17.144 4.60852 17.7969 4.1066C17.5656 5.14148 17.0746 6.08575 16.3787 6.83365M15.656 5.24349C15.2454 4.72892 14.6996 4.36421 14.0926 4.19868C13.4856 4.03315 12.8466 4.07479 12.262 4.31797C11.6774 4.56114 11.1754 4.99412 10.8239 5.55834C10.4725 6.12256 10.2885 6.7908 10.2969 7.47269V8.21575C9.09868 8.24961 7.91137 7.96 6.84074 7.3727C5.77011 6.78541 4.84937 5.91866 4.16052 4.84966C4.16052 4.84966 1.43323 11.5372 7.5696 14.5095C6.16541 15.5483 4.49267 16.0691 2.79688 15.9956C8.93324 19.7109 16.4333 15.9956 16.4333 7.45039C16.4326 7.24341 16.4144 7.03695 16.3787 6.83365M15.656 5.24349L16.1302 5.76579L16.3787 6.83365" stroke="black" stroke-linecap="round" stroke-linejoin="round"/>
</svg>
