<svg width="120" height="41" viewBox="0 0 120 41" fill="none" xmlns="http://www.w3.org/2000/svg">
<g clip-path="url(#clip0_1_6544)">
<path d="M0.620117 0.554688H5.36968L11.7303 15.8792H11.9814L18.3421 0.554688H23.0916V21.7034H19.3673V7.174H19.1685L13.2473 21.6415H10.4645L4.54322 7.14302H4.34445V21.7034H0.620117V0.554688Z" fill="black"/>
<path d="M27.3184 21.7034V0.554688H41.2533V3.76624H31.1997V9.5078H40.5314V12.7193H31.1997V18.4919H41.337V21.7034H27.3184Z" fill="black"/>
<path d="M44.2715 3.76624V0.554688H61.3658V3.76624H54.7436V21.7034H50.8937V3.76624H44.2715Z" fill="black"/>
<path d="M64.8235 21.7034H60.6807L68.2236 0.554688H73.015L80.5683 21.7034H76.4255L70.703 4.89184H70.5356L64.8235 21.7034ZM64.9595 13.4112H76.2581V16.4885H64.9595V13.4112Z" fill="black"/>
<path d="M83.3906 21.7034V0.554688H87.2718V18.4919H96.7082V21.7034H83.3906Z" fill="black"/>
<path d="M118.387 11.1291C118.387 13.4079 117.954 15.3596 117.09 16.9843C116.232 18.6021 115.06 19.8413 113.575 20.7018C112.096 21.5624 110.419 21.9927 108.542 21.9927C106.666 21.9927 104.986 21.5624 103.5 20.7018C102.021 19.8344 100.85 18.5918 99.985 16.974C99.1271 15.3492 98.6982 13.401 98.6982 11.1291C98.6982 8.85042 99.1271 6.90215 99.985 5.28433C100.85 3.65962 102.021 2.41699 103.5 1.55645C104.986 0.695898 106.666 0.265625 108.542 0.265625C110.419 0.265625 112.096 0.695898 113.575 1.55645C115.06 2.41699 116.232 3.65962 117.09 5.28433C117.954 6.90215 118.387 8.85042 118.387 11.1291ZM114.485 11.1291C114.485 9.52509 114.23 8.17233 113.721 7.07083C113.219 5.96244 112.521 5.12598 111.629 4.56147C110.736 3.99006 109.707 3.70437 108.542 3.70437C107.378 3.70437 106.349 3.99006 105.456 4.56147C104.564 5.12598 103.863 5.96244 103.354 7.07083C102.851 8.17233 102.6 9.52509 102.6 11.1291C102.6 12.7332 102.851 14.0894 103.354 15.1978C103.863 16.2993 104.564 17.1357 105.456 17.7071C106.349 18.2717 107.378 18.5539 108.542 18.5539C109.707 18.5539 110.736 18.2717 111.629 17.7071C112.521 17.1357 113.219 16.2993 113.721 15.1978C114.23 14.0894 114.485 12.7332 114.485 11.1291Z" fill="black"/>
<path d="M0.820189 40.1211H0L3.11756 31.6616H3.95449L7.07204 40.1211H6.25185L3.56531 32.6653H3.50673L0.820189 40.1211ZM1.41022 36.8785H5.66182V37.5725H1.41022V36.8785Z" fill="black"/>
<path d="M13.8438 40.1211V31.6616H16.6098C17.2179 31.6616 17.7257 31.7703 18.133 31.9879C18.5431 32.2027 18.8513 32.5014 19.0578 32.8842C19.267 33.2642 19.3716 33.7007 19.3716 34.1936C19.3716 34.6865 19.267 35.1216 19.0578 35.4989C18.8513 35.8762 18.5445 36.1708 18.1372 36.3829C17.7299 36.5949 17.2249 36.7009 16.6223 36.7009H14.2664V35.9946H16.6014C17.0478 35.9946 17.4188 35.9216 17.7145 35.7757C18.013 35.6297 18.2349 35.4218 18.38 35.1519C18.5278 34.8821 18.6018 34.5626 18.6018 34.1936C18.6018 33.8246 18.5278 33.5024 18.38 33.2271C18.2321 32.9489 18.0088 32.7341 17.7103 32.5827C17.4146 32.4312 17.0409 32.3555 16.589 32.3555H14.6263V40.1211H13.8438ZM17.6226 36.3044L19.7315 40.1211H18.8276L16.7396 36.3044H17.6226Z" fill="black"/>
<path d="M33.2925 34.3052H32.5058C32.4472 34.016 32.3412 33.7489 32.1877 33.5038C32.0371 33.256 31.8474 33.0398 31.6186 32.8553C31.3899 32.6708 31.1304 32.5276 30.8403 32.4257C30.5501 32.3238 30.2363 32.2729 29.8987 32.2729C29.3575 32.2729 28.8637 32.412 28.4174 32.6901C27.9738 32.9682 27.6181 33.3771 27.3503 33.9169C27.0853 34.4539 26.9528 35.112 26.9528 35.8913C26.9528 36.6761 27.0853 37.337 27.3503 37.874C27.6181 38.411 27.9738 38.8185 28.4174 39.0967C28.8637 39.372 29.3575 39.5097 29.8987 39.5097C30.2363 39.5097 30.5501 39.4588 30.8403 39.3569C31.1304 39.255 31.3899 39.1132 31.6186 38.9314C31.8474 38.7469 32.0371 38.5308 32.1877 38.2829C32.3412 38.0351 32.4472 37.7666 32.5058 37.4775H33.2925C33.2227 37.8657 33.0916 38.2279 32.8991 38.5638C32.7094 38.897 32.4667 39.1889 32.171 39.4395C31.8781 39.6901 31.5405 39.8856 31.1583 40.0261C30.7761 40.1665 30.3563 40.2367 29.8987 40.2367C29.179 40.2367 28.5401 40.0591 27.9822 39.7039C27.4242 39.3459 26.9862 38.842 26.6682 38.1921C26.353 37.5422 26.1953 36.7753 26.1953 35.8913C26.1953 35.0074 26.353 34.2404 26.6682 33.5906C26.9862 32.9407 27.4242 32.4381 27.9822 32.0829C28.5401 31.7249 29.179 31.5459 29.8987 31.5459C30.3563 31.5459 30.7761 31.6161 31.1583 31.7566C31.5405 31.8942 31.8781 32.0898 32.171 32.3431C32.4667 32.5937 32.7094 32.8856 32.8991 33.2188C33.0916 33.552 33.2227 33.9141 33.2925 34.3052Z" fill="black"/>
<path d="M40.4336 40.1211V31.6616H41.2161V35.5402H46.0786V31.6616H46.8612V40.1211H46.0786V36.2342H41.2161V40.1211H40.4336Z" fill="black"/>
<path d="M55.219 31.6616V40.1211H54.4365V31.6616H55.219Z" fill="black"/>
<path d="M62.2812 32.3555V31.6616H68.4955V32.3555H65.7797V40.1211H64.9972V32.3555H62.2812Z" fill="black"/>
<path d="M75.5596 40.1211V31.6616H80.531V32.3555H76.3422V35.5402H80.2674V36.2342H76.3422V39.4271H80.6147V40.1211H75.5596Z" fill="black"/>
<path d="M94.5717 34.3052H93.785C93.7264 34.016 93.6204 33.7489 93.467 33.5038C93.3163 33.256 93.1266 33.0398 92.8978 32.8553C92.6691 32.6708 92.4096 32.5276 92.1195 32.4257C91.8294 32.3238 91.5155 32.2729 91.178 32.2729C90.6367 32.2729 90.143 32.412 89.6966 32.6901C89.253 32.9682 88.8973 33.3771 88.6295 33.9169C88.3645 34.4539 88.232 35.112 88.232 35.8913C88.232 36.6761 88.3645 37.337 88.6295 37.874C88.8973 38.411 89.253 38.8185 89.6966 39.0967C90.143 39.372 90.6367 39.5097 91.178 39.5097C91.5155 39.5097 91.8294 39.4588 92.1195 39.3569C92.4096 39.255 92.6691 39.1132 92.8978 38.9314C93.1266 38.7469 93.3163 38.5308 93.467 38.2829C93.6204 38.0351 93.7264 37.7666 93.785 37.4775H94.5717C94.502 37.8657 94.3708 38.2279 94.1783 38.5638C93.9886 38.897 93.7459 39.1889 93.4502 39.4395C93.1573 39.6901 92.8197 39.8856 92.4375 40.0261C92.0553 40.1665 91.6355 40.2367 91.178 40.2367C90.4582 40.2367 89.8193 40.0591 89.2614 39.7039C88.7034 39.3459 88.2655 38.842 87.9474 38.1921C87.6322 37.5422 87.4746 36.7753 87.4746 35.8913C87.4746 35.0074 87.6322 34.2404 87.9474 33.5906C88.2655 32.9407 88.7034 32.4381 89.2614 32.0829C89.8193 31.7249 90.4582 31.5459 91.178 31.5459C91.6355 31.5459 92.0553 31.6161 92.4375 31.7566C92.8197 31.8942 93.1573 32.0898 93.4502 32.3431C93.7459 32.5937 93.9886 32.8856 94.1783 33.2188C94.3708 33.552 94.502 33.9141 94.5717 34.3052Z" fill="black"/>
<path d="M101.193 32.3555V31.6616H107.408V32.3555H104.692V40.1211H103.909V32.3555H101.193Z" fill="black"/>
<path d="M119.125 33.7766C119.078 33.3057 118.867 32.9312 118.494 32.6531C118.12 32.375 117.65 32.2359 117.083 32.2359C116.684 32.2359 116.333 32.3034 116.029 32.4383C115.727 32.5732 115.49 32.7605 115.317 33.0001C115.147 33.2369 115.062 33.5068 115.062 33.8097C115.062 34.0327 115.111 34.2282 115.209 34.3962C115.306 34.5642 115.437 34.7088 115.602 34.8299C115.769 34.9484 115.953 35.0502 116.154 35.1356C116.358 35.221 116.563 35.2926 116.769 35.3504L117.673 35.6065C117.947 35.6808 118.22 35.7759 118.494 35.8915C118.767 36.0072 119.017 36.1531 119.243 36.3294C119.471 36.5028 119.654 36.7163 119.791 36.9696C119.93 37.2202 120 37.5217 120 37.8742C120 38.3258 119.881 38.732 119.644 39.0927C119.407 39.4535 119.067 39.7399 118.623 39.9519C118.18 40.1612 117.648 40.2658 117.029 40.2658C116.446 40.2658 115.94 40.1708 115.51 39.9808C115.08 39.7881 114.743 39.5223 114.497 39.1836C114.252 38.8449 114.114 38.4525 114.083 38.0064H114.886C114.914 38.3396 115.026 38.6219 115.221 38.8532C115.416 39.0845 115.67 39.2607 115.983 39.3819C116.295 39.5003 116.644 39.5595 117.029 39.5595C117.456 39.5595 117.835 39.4893 118.167 39.3488C118.502 39.2056 118.764 39.0074 118.954 38.754C119.146 38.4979 119.243 38.2005 119.243 37.8618C119.243 37.5754 119.167 37.3359 119.017 37.1431C118.866 36.9476 118.655 36.7837 118.385 36.6515C118.117 36.5194 117.806 36.4023 117.452 36.3004L116.426 36.003C115.754 35.8048 115.232 35.5308 114.861 35.181C114.49 34.8313 114.305 34.3852 114.305 33.8427C114.305 33.3884 114.427 32.9891 114.673 32.6448C114.921 32.2979 115.256 32.028 115.677 31.8352C116.101 31.6397 116.577 31.542 117.104 31.542C117.637 31.542 118.109 31.6383 118.519 31.8311C118.929 32.0239 119.254 32.2896 119.494 32.6283C119.736 32.9643 119.866 33.347 119.883 33.7766H119.125Z" fill="black"/>
</g>
<defs>
<clipPath id="clip0_1_6544">
<rect width="120" height="40" fill="white" transform="translate(0 0.265625)"/>
</clipPath>
</defs>
</svg>
