<svg width="950" height="451" viewBox="0 0 950 451" fill="none" xmlns="http://www.w3.org/2000/svg">
<path d="M284.201 361.284H100.201V109.484H285.601V167.284H282.801V112.284H103.101V358.484H284.201V361.284Z" fill="#272425"/>
<path fill-rule="evenodd" clip-rule="evenodd" d="M416.601 361.284H272.701V165.884H416.601V361.284ZM275.601 358.384H413.801V168.684H275.601V358.384Z" fill="#272425"/>
<path fill-rule="evenodd" clip-rule="evenodd" d="M504 326.684H469.1V254.684H504V326.684ZM472 323.884H501.1V257.584H472V323.884Z" fill="#272425"/>
<path d="M471.8 325.884L469.3 324.684L501.3 255.584L503.9 256.784L471.8 325.884Z" fill="#272425"/>
<path d="M501.3 325.884L469.3 256.784L471.8 255.584L503.9 324.684L501.3 325.884Z" fill="#272425"/>
<path d="M488 173.784H486.1V122.084H447.8V173.784H445.9V120.184H488V173.784Z" fill="#272425"/>
<path d="M461.1 173.984L459.4 173.184L486.2 120.684L487.9 121.484L461.1 173.984Z" fill="#272425"/>
<path d="M472.9 174.184L446 121.484L447.7 120.684L474.6 173.384L472.9 174.184Z" fill="#272425"/>
<path d="M554.6 173.784H552.8V122.084H517.5V173.784H515.6V120.184H554.6V173.784Z" fill="#272425"/>
<path d="M529.8 173.984L528.1 173.184L552.8 120.684L554.6 121.484L529.8 173.984Z" fill="#272425"/>
<path d="M540.599 174.184L515.699 121.484L517.399 120.684L542.299 173.384L540.599 174.184Z" fill="#272425"/>
<path fill-rule="evenodd" clip-rule="evenodd" d="M247.5 203.584H206.5V120.184H247.5V203.584ZM208.4 201.684H245.6V122.084H208.4V201.684Z" fill="#272425"/>
<path d="M208.3 202.984L206.6 202.184L245.7 120.684L247.4 121.484L208.3 202.984Z" fill="#272425"/>
<path d="M245.7 202.984L206.6 121.484L208.3 120.684L247.4 202.184L245.7 202.984Z" fill="#272425"/>
<path fill-rule="evenodd" clip-rule="evenodd" d="M181.9 203.584H140.9V120.184H181.9V203.584ZM142.8 201.684H180V122.084H142.8V201.684Z" fill="#272425"/>
<path d="M142.7 202.984L141 202.184L180.1 120.684L181.8 121.484L142.7 202.984Z" fill="#272425"/>
<path d="M180.1 202.984L141 121.484L142.7 120.684L181.8 202.184L180.1 202.984Z" fill="#272425"/>
<path fill-rule="evenodd" clip-rule="evenodd" d="M237.1 327.984H140.9V244.584H237.1V327.984ZM142.8 326.184H235.3V246.484H142.8V326.184Z" fill="#272425"/>
<path d="M142.5 327.784L141.2 326.384L235.6 244.884L236.8 246.284L142.5 327.784Z" fill="#272425"/>
<path d="M235.6 327.784L141.2 246.284L142.5 244.884L236.8 326.384L235.6 327.784Z" fill="#272425"/>
<path fill-rule="evenodd" clip-rule="evenodd" d="M388.3 357.884H302.9V239.584H388.3V357.884ZM305.7 354.984H385.5V242.284H305.7V354.984Z" fill="#272425"/>
<path d="M346.2 356.484H343.4V240.984H346.2V356.484Z" fill="#272425"/>
<path fill-rule="evenodd" clip-rule="evenodd" d="M599.901 112.284H91.3008V98.8848H599.901V112.284ZM94.2008 109.384H597.101V101.684H94.2008V109.384Z" fill="#272425"/>
<path fill-rule="evenodd" clip-rule="evenodd" d="M592.3 101.184H98.5L318.9 8.98438H375.3L375.6 9.08438L592.3 101.184ZM112.7 98.3844H578.3L374.7 11.8844H319.5L112.7 98.3844Z" fill="#272425"/>
<path fill-rule="evenodd" clip-rule="evenodd" d="M579.1 98.8844H111.1L320 13.0844H373.4L579.1 98.8844ZM125.5 96.0844H564.9L372.8 15.8843H320.6L125.5 96.0844Z" fill="#272425"/>
<path d="M409.201 167.284H406.301V110.884H409.201V167.284Z" fill="#272425"/>
<path fill-rule="evenodd" clip-rule="evenodd" d="M802.801 230.284H413.801V172.384L646.101 172.484L802.801 230.284ZM416.601 227.384H786.801L645.301 175.184H416.601V227.384Z" fill="#272425"/>
<path fill-rule="evenodd" clip-rule="evenodd" d="M794.701 361.284H413.801V233.284H794.701V361.284ZM416.601 358.484H791.901V236.184H416.601V358.484Z" fill="#272425"/>
<path d="M787.701 234.784H784.801V228.884H787.701V234.784Z" fill="#272425"/>
<path d="M556.201 358.984H553.301V233.884H556.201V358.984Z" fill="#272425"/>
<path fill-rule="evenodd" clip-rule="evenodd" d="M387.9 168.184H303.4V120.184H387.9V168.184ZM305.3 166.284H386V121.984H305.3V166.284Z" fill="#272425"/>
<path d="M345.6 167.284H343.7V121.084H345.6V167.284Z" fill="#272425"/>
<path d="M344.001 167.884L303.601 121.684L305.001 120.484L345.401 166.684L344.001 167.884Z" fill="#272425"/>
<path d="M305.001 167.884L303.601 166.684L344.001 120.484L345.401 121.684L305.001 167.884Z" fill="#272425"/>
<path d="M591.501 173.784H588.701V110.884H591.501V173.784Z" fill="#272425"/>
<path d="M555.901 277.184C565.835 277.184 575.768 277.184 585.701 277.184C655.301 277.184 724.868 277.184 794.401 277.184C798.101 277.184 793.901 279.784 792.201 279.784C782.268 279.784 772.335 279.784 762.401 279.784C692.801 279.784 623.201 279.784 553.601 279.784C550.001 279.784 554.101 277.184 555.901 277.184Z" fill="#272425"/>
<path d="M555.801 288.984C565.735 288.984 575.668 288.984 585.601 288.984C655.135 288.984 724.701 288.984 794.301 288.984C798.001 288.984 794.701 292.484 792.301 292.484C782.368 292.484 772.435 292.484 762.501 292.484C692.901 292.484 623.335 292.484 553.801 292.484C550.101 292.484 553.401 288.984 555.801 288.984Z" fill="#272425"/>
<path d="M555.801 312.784C565.734 312.784 575.668 312.784 585.601 312.784C655.201 312.784 724.801 312.784 794.401 312.784C798.101 312.784 794.401 316.084 792.301 316.084C782.368 316.084 772.434 316.084 762.501 316.084C692.901 316.084 623.301 316.084 553.701 316.084C550.001 316.084 553.601 312.784 555.801 312.784Z" fill="#272425"/>
<path d="M555.001 323.084C564.934 323.084 574.867 323.084 584.801 323.084C654.401 323.084 724.001 323.084 793.601 323.084C797.301 323.084 796.201 327.084 793.101 327.084C783.167 327.084 773.234 327.084 763.301 327.084C693.701 327.084 624.101 327.084 554.501 327.084C550.801 327.084 551.901 323.084 555.001 323.084Z" fill="#272425"/>
<path d="M796.601 227.684H790.001V224.784H796.601V227.684ZM783.301 227.684H776.701V224.884H783.301V227.684ZM770.001 227.684H763.401V224.884H770.001V227.684ZM756.801 227.684H750.101V224.784H756.801V227.684ZM743.501 227.684H736.801V224.884H743.501V227.684ZM730.201 227.684H723.601V224.784H730.201V227.684ZM716.901 227.684H710.301V224.884H716.901V227.684ZM703.601 227.684H697.001V224.784H703.601V227.684ZM690.401 227.684H683.701V224.884H690.401V227.684ZM677.101 227.684H670.501V224.784H677.101V227.684ZM663.801 227.684H657.201V224.884H663.801V227.684ZM650.501 227.684H643.901V224.884H650.501V227.684ZM637.301 227.684H630.601V224.784H637.301V227.684ZM624.001 227.684H617.301V224.884H624.001V227.684ZM610.701 227.684H604.101V224.784H610.701V227.684ZM597.401 227.684H590.801V224.884H597.401V227.684ZM584.201 227.684H577.501V224.784H584.201V227.684ZM570.901 227.684H564.201V224.884H570.901V227.684ZM557.601 227.684H551.001V224.784H557.601V227.684ZM544.301 227.684H537.701V224.884H544.301V227.684ZM531.001 227.684H524.401V224.784H531.001V227.684ZM517.801 227.684H511.101V224.884H517.801V227.684ZM504.501 227.684H497.901V224.884H504.501V227.684ZM491.201 227.684H484.601V224.784H491.201V227.684ZM477.901 227.684H471.301V224.884H477.901V227.684ZM464.701 227.684H458.001V224.784H464.701V227.684ZM451.401 227.684H444.701V224.884H451.401V227.684ZM438.101 227.684H431.501V224.784H438.101V227.684ZM424.801 227.684H418.201V224.884H424.801V227.684ZM411.601 227.684H404.901V224.784H411.601V227.684ZM398.301 227.684H391.601V224.884H398.301V227.684ZM385.001 227.684H378.401V224.884H385.001V227.684ZM371.701 227.684H365.101V224.784H371.701V227.684ZM358.401 227.684H351.801V224.884H358.401V227.684ZM345.201 227.684H338.501V224.784H345.201V227.684ZM331.901 227.684H325.201V224.884H331.901V227.684ZM318.601 227.684H312.001V224.784H318.601V227.684ZM305.301 227.684H298.701V224.884H305.301V227.684ZM292.101 227.684H285.401V224.784H292.101V227.684ZM278.801 227.684H272.101V224.884H278.801V227.684ZM265.501 227.684H258.901V224.784H265.501V227.684ZM252.201 227.684H245.601V224.884H252.201V227.684ZM238.901 227.684H232.301V224.884H238.901V227.684ZM225.701 227.684H219.001V224.784H225.701V227.684ZM212.401 227.684H205.801V224.884H212.401V227.684ZM199.101 227.684H192.501V224.784H199.101V227.684ZM185.801 227.684H179.201V224.884H185.801V227.684ZM172.601 227.684H165.901V224.784H172.601V227.684ZM159.301 227.684H152.601V224.884H159.301V227.684ZM146.001 227.684H139.401V224.784H146.001V227.684ZM132.701 227.684H126.101V224.884H132.701V227.684ZM119.501 227.684H112.801V224.784H119.501V227.684ZM106.201 227.684H99.5002V224.884H106.201V227.684ZM92.9002 227.684H86.3002V224.884H92.9002V227.684ZM79.6002 227.684H73.0002V224.784H79.6002V227.684ZM66.3002 227.684H59.7002V224.884H66.3002V227.684Z" fill="#272425"/>
<path d="M274.2 358.284H273.5V355.484H274.2V358.284ZM266.9 358.284H260.2V355.384H266.9V358.284ZM253.6 358.284H247V355.484H253.6V358.284ZM240.3 358.284H233.7V355.384H240.3V358.284ZM227 358.284H220.4V355.484H227V358.284ZM213.8 358.284H207.1V355.484H213.8V358.284ZM200.5 358.284H193.8V355.384H200.5V358.284ZM187.2 358.284H180.6V355.484H187.2V358.284ZM173.9 358.284H167.3V355.384H173.9V358.284ZM160.7 358.284H154V355.484H160.7V358.284ZM147.4 358.284H140.7V355.384H147.4V358.284ZM134.1 358.284H127.5V355.484H134.1V358.284ZM120.8 358.284H114.2V355.384H120.8V358.284ZM107.5 358.284H100.9V355.484H107.5V358.284ZM94.3 358.284H87.6V355.384H94.3V358.284ZM81 358.284H74.3V355.484H81V358.284ZM67.7 358.284H61.1V355.484H67.7V358.284ZM54.4 358.284H47.8V355.384H54.4V358.284ZM41.2 358.284H34.5V355.484H41.2V358.284ZM27.9 358.284H21.2V355.384H27.9V358.284ZM14.6 358.284H8V355.484H14.6V358.284Z" fill="#272425"/>
<path d="M934.201 247.284H927.601V244.484H934.201V247.284ZM920.901 247.284H914.301V244.484H920.901V247.284ZM907.701 247.284H901.001V244.384H907.701V247.284ZM894.401 247.284H887.701V244.484H894.401V247.284ZM881.101 247.284H874.501V244.384H881.101V247.284ZM867.801 247.284H861.201V244.484H867.801V247.284ZM854.501 247.284H847.901V244.384H854.501V247.284ZM841.301 247.284H834.601V244.484H841.301V247.284ZM828.001 247.284H821.401V244.384H828.001V247.284ZM814.701 247.284H808.101V244.484H814.701V247.284ZM801.401 247.284H794.801V244.384H801.401V247.284Z" fill="#272425"/>
<path d="M941.801 369.084H940.901V366.284H941.801V369.084ZM934.201 369.084H927.601V366.184H934.201V369.084ZM920.901 369.084H914.301V366.284H920.901V369.084ZM907.701 369.084H901.001V366.184H907.701V369.084ZM894.401 369.084H887.701V366.284H894.401V369.084ZM881.101 369.084H874.501V366.184H881.101V369.084ZM867.801 369.084H861.201V366.284H867.801V369.084ZM854.501 369.084H847.901V366.284H854.501V369.084ZM841.301 369.084H834.601V366.184H841.301V369.084ZM828.001 369.084H821.401V366.284H828.001V369.084ZM814.701 369.084H808.101V366.184H814.701V369.084ZM801.401 369.084H794.801V366.284H801.401V369.084Z" fill="#272425"/>
<path d="M90.2006 112.884H83.5006V109.984H90.2006V112.884ZM76.9006 112.884H70.3006V110.084H76.9006V112.884ZM63.6006 112.884H57.0006V110.084H63.6006V112.884ZM50.3006 112.884H43.7006V109.984H50.3006V112.884ZM37.1006 112.884H30.4006V110.084H37.1006V112.884ZM23.8006 112.884H17.1006V109.984H23.8006V112.884Z" fill="#272425"/>
<path d="M741.9 118.184H735.3V115.284H741.9V118.184ZM728.6 118.184H722V115.384H728.6V118.184ZM715.3 118.184H708.7V115.384H715.3V118.184ZM702.1 118.184H695.4V115.284H702.1V118.184ZM688.8 118.184H682.2V115.384H688.8V118.184ZM675.5 118.184H668.9V115.284H675.5V118.184ZM662.2 118.184H655.6V115.384H662.2V118.184ZM649 118.184H642.3V115.284H649V118.184ZM635.7 118.184H629V115.384H635.7V118.184ZM622.4 118.184H615.8V115.284H622.4V118.184ZM609.1 118.184H602.5V115.384H609.1V118.184Z" fill="#272425"/>
<path fill-rule="evenodd" clip-rule="evenodd" d="M165.8 333.984L165.3 336.184H164.4L166.2 328.684H167.1L168.8 336.184H167.9L167.4 333.984H165.8ZM167.4 333.284L167 331.384C166.9 330.884 166.8 330.184 166.7 329.684H166.6C166.6 330.184 166.4 330.884 166.3 331.384L166 333.284H167.4Z" fill="black"/>
<path d="M187.9 328.684H190.7V329.484H188.7V332.084H190.6V332.784H188.7V336.184H187.9V328.684Z" fill="black"/>
<path fill-rule="evenodd" clip-rule="evenodd" d="M212.6 333.984L212.1 336.184H211.2L213 328.684H213.9L215.6 336.184H214.7L214.2 333.984H212.6ZM214.2 333.284L213.8 331.384C213.7 330.884 213.6 330.184 213.5 329.684H213.4C213.4 330.184 213.2 330.884 213.1 331.384L212.8 333.284H214.2Z" fill="black"/>
<path d="M46.2008 318.984C46.3008 318.784 46.5008 318.384 46.5008 317.984C46.5008 317.184 46.0008 316.684 45.1008 316.684C44.1008 316.684 43.6008 317.284 43.5008 318.084V318.284H42.9008V318.184C42.9008 317.584 42.5008 316.784 41.6008 316.784C40.9008 316.784 40.5008 317.184 40.5008 317.784C40.5008 318.084 40.7008 318.484 40.8008 318.684L40.2008 318.884C40.0008 318.584 39.8008 318.084 39.8008 317.584C39.8008 316.484 40.5008 315.984 41.5008 315.984C42.2008 315.984 42.8008 316.384 43.2008 317.084C43.4008 316.384 44.0008 315.784 45.1008 315.784C46.3008 315.884 47.2008 316.584 47.2008 317.984C47.2008 318.384 47.1008 318.884 46.9008 319.184L46.2008 318.984Z" fill="black"/>
<path d="M46.2008 314.684C46.4008 314.384 46.6008 314.084 46.6008 313.584C46.6008 312.884 46.0008 312.384 45.1008 312.284C44.2008 312.284 43.6008 312.884 43.6008 313.784V313.984H43.0008V313.784C43.0008 313.284 42.6008 312.484 41.7008 312.484C41.0008 312.484 40.6008 312.884 40.6008 313.384C40.6008 313.784 40.7008 314.084 40.9008 314.284L40.2008 314.484C40.0008 314.184 39.8008 313.784 39.8008 313.184C39.9008 312.184 40.6008 311.584 41.5008 311.584C42.3008 311.584 42.9008 311.984 43.2008 312.684C43.4008 312.084 44.0008 311.484 45.2008 311.484C46.4008 311.484 47.3008 312.284 47.3008 313.584C47.3008 314.084 47.1008 314.584 46.9008 314.884L46.2008 314.684Z" fill="black"/>
<path fill-rule="evenodd" clip-rule="evenodd" d="M43.7014 306.784C46.3014 306.784 47.4014 307.684 47.4014 308.684C47.3014 309.784 46.0014 310.484 43.6014 310.484C41.2014 310.384 39.9014 309.684 39.9014 308.484C39.9014 307.284 41.3014 306.684 43.7014 306.784ZM43.6014 309.584C45.4014 309.584 46.6014 309.384 46.6014 308.584C46.6014 307.984 45.4014 307.684 43.7014 307.584C42.0014 307.584 40.7014 307.884 40.7014 308.584C40.6014 309.284 41.9014 309.584 43.6014 309.584Z" fill="black"/>
<path fill-rule="evenodd" clip-rule="evenodd" d="M47.3008 303.684L46.8008 303.784C47.2008 304.084 47.4008 304.384 47.4008 304.884C47.4008 305.584 46.8008 306.184 45.9008 306.184C44.5008 306.084 43.9008 304.984 43.9008 303.784H43.8008C43.0008 303.784 42.5008 303.984 42.5008 304.684C42.5008 305.017 42.6008 305.317 42.8008 305.584L42.2008 305.684C42.0008 305.484 41.8008 304.984 41.8008 304.484C41.9008 303.384 42.6008 302.884 43.8008 302.984H46.1008C46.5008 302.984 47.0008 302.984 47.4008 302.984L47.3008 303.684ZM44.5008 303.684C44.5008 304.184 44.5008 305.184 45.7008 305.184C46.4008 305.284 46.7008 304.884 46.7008 304.584C46.7008 304.184 46.4008 303.884 45.9008 303.784C45.7674 303.717 45.6675 303.717 45.6008 303.784L44.5008 303.684Z" fill="black"/>
<path d="M39.7012 297.984V297.184H42.6012C42.4012 297.084 42.3012 296.884 42.2012 296.684C42.0012 296.484 42.0012 296.284 42.0012 295.984C42.0012 295.284 42.5012 294.684 43.9012 294.784H47.5012V295.684L44.0012 295.584C43.3012 295.584 42.7012 295.684 42.7012 296.284C42.7012 296.684 43.0012 296.984 43.5012 297.184C43.6345 297.184 43.7678 297.184 43.9012 297.184L47.4012 297.284V298.084L39.7012 297.984Z" fill="black"/>
<path fill-rule="evenodd" clip-rule="evenodd" d="M44.901 290.184C46.901 290.184 47.601 291.184 47.601 291.984C47.601 292.984 46.701 293.784 44.801 293.784C42.801 293.684 42.001 292.784 42.001 291.884C42.001 290.884 43.001 290.184 44.901 290.184ZM44.801 292.884C45.701 292.884 46.901 292.784 46.901 291.984C46.901 291.184 45.701 291.084 44.801 291.084C44.001 291.084 42.701 291.184 42.701 291.884C42.701 292.684 44.001 292.884 44.801 292.884Z" fill="black"/>
<path d="M39.8008 289.084L39.9008 288.184L42.8008 288.284C42.6008 288.184 42.4008 287.984 42.3008 287.784C42.2008 287.584 42.1008 287.384 42.1008 287.084C42.1008 286.384 42.7008 285.784 44.0008 285.884H47.6008V286.784L44.1008 286.684C43.5008 286.684 42.8008 286.784 42.8008 287.384C42.8008 287.784 43.1008 288.084 43.7008 288.284C43.8341 288.284 43.9675 288.284 44.1008 288.284L47.6008 288.384V289.184L39.8008 289.084Z" fill="black"/>
<path d="M40.8008 283.584H42.2008L42.3008 282.484L42.9008 282.584V283.584H46.1008C46.8008 283.684 47.0008 283.384 47.0008 283.084C47.0008 282.951 47.0008 282.817 47.0008 282.684H47.6008C47.6675 282.817 47.7008 283.051 47.7008 283.384C47.7008 283.684 47.6008 283.984 47.4008 284.184C47.1008 284.384 46.8008 284.484 46.0008 284.484H42.9008V285.084H42.2008V284.384H41.0008L40.8008 283.584Z" fill="black"/>
<path d="M843.9 348.084C844 347.784 844.2 347.384 844.2 346.984C844.2 346.284 843.7 345.684 842.8 345.684C841.8 345.684 841.3 346.284 841.3 347.184V347.384H840.6V347.184C840.6 346.684 840.2 345.884 839.3 345.884C838.6 345.884 838.2 346.184 838.2 346.784C838.2 347.184 838.4 347.484 838.5 347.684L837.9 347.884C837.7 347.584 837.5 347.084 837.5 346.584C837.5 345.584 838.2 344.984 839.2 344.984C839.9 344.984 840.5 345.384 840.9 346.084C841.1 345.484 841.7 344.884 842.8 344.884C844 344.884 844.9 345.684 844.9 346.984C844.9 347.484 844.8 347.984 844.6 348.284L843.9 348.084Z" fill="black"/>
<path d="M844 343.684C844.1 343.484 844.3 343.084 844.3 342.684C844.3 341.884 843.7 341.384 842.8 341.384C841.9 341.384 841.3 341.884 841.3 342.784V342.984H840.7V342.784C840.7 342.284 840.3 341.484 839.4 341.484C838.7 341.484 838.3 341.884 838.3 342.484C838.3 342.784 838.4 343.084 838.6 343.384L837.9 343.584C837.7 343.284 837.5 342.784 837.6 342.184C837.6 341.184 838.3 340.584 839.3 340.684C840 340.684 840.6 341.084 840.9 341.784H841C841.1 341.084 841.7 340.484 842.9 340.484C844.1 340.484 845 341.284 845 342.584C845 343.084 844.8 343.584 844.6 343.884L844 343.684Z" fill="black"/>
<path fill-rule="evenodd" clip-rule="evenodd" d="M841.4 335.784C844 335.784 845.1 336.684 845.1 337.784C845 338.884 843.7 339.484 841.3 339.484C838.9 339.484 837.6 338.684 837.6 337.484C837.6 336.384 839.1 335.784 841.4 335.784ZM841.3 338.584C843.1 338.684 844.3 338.384 844.3 337.684C844.3 336.984 843.1 336.684 841.4 336.684C839.7 336.584 838.4 336.884 838.4 337.584C838.4 338.284 839.6 338.584 841.3 338.584Z" fill="black"/>
<path fill-rule="evenodd" clip-rule="evenodd" d="M845.1 332.784H844.5V332.884C844.9 333.084 845.1 333.484 845.1 333.884C845.1 334.684 844.5 335.184 843.6 335.184C842.2 335.184 841.6 334.084 841.6 332.884H841.5C840.7 332.884 840.2 332.984 840.2 333.684C840.2 334.018 840.3 334.318 840.5 334.584L839.9 334.784C839.7 334.584 839.5 334.084 839.5 333.484C839.6 332.384 840.3 331.984 841.5 331.984H843.8C844.3 331.984 844.7 331.984 845.1 331.984V332.784ZM842.3 332.884C842.3 333.284 842.3 334.384 843.5 334.384C844.2 334.384 844.5 333.984 844.5 333.684C844.5 333.384 844.2 332.984 843.7 332.884C843.567 332.884 843.467 332.884 843.4 332.884H842.3Z" fill="black"/>
<path fill-rule="evenodd" clip-rule="evenodd" d="M837.7 326.984C837.633 326.651 837.6 326.251 837.6 325.784C837.6 324.984 837.8 324.484 838.2 324.084C838.7 323.484 839.7 323.084 841.3 323.084C843 323.084 843.9 323.584 844.4 324.084C845 324.584 845.2 325.284 845.2 326.084C845.2 326.484 845.2 326.784 845.1 327.084L837.7 326.984ZM844.4 326.184C844.466 326.118 844.5 326.018 844.5 325.884C844.5 324.984 843.8 323.984 841.3 323.984C839.4 323.984 838.3 324.484 838.3 325.684C838.3 325.884 838.3 325.984 838.3 326.184H844.4Z" fill="black"/>
<path fill-rule="evenodd" clip-rule="evenodd" d="M842.6 318.684C844.7 318.684 845.3 319.684 845.3 320.484C845.3 321.484 844.4 322.284 842.5 322.284C840.5 322.184 839.7 321.284 839.7 320.384C839.8 319.384 840.7 318.684 842.6 318.684ZM842.5 321.384C843.4 321.384 844.6 321.284 844.7 320.484C844.7 319.684 843.4 319.584 842.6 319.584C841.7 319.584 840.5 319.684 840.4 320.384C840.4 321.184 841.7 321.384 842.5 321.384Z" fill="black"/>
<path fill-rule="evenodd" clip-rule="evenodd" d="M842.6 314.384C844.7 314.384 845.4 315.384 845.4 316.184C845.4 317.184 844.5 317.884 842.6 317.884C840.6 317.884 839.8 316.984 839.8 316.084C839.8 315.084 840.7 314.284 842.6 314.384ZM842.6 317.084C843.5 317.084 844.7 316.884 844.7 316.184C844.7 315.384 843.5 315.284 842.6 315.184C841.8 315.184 840.5 315.284 840.5 316.084C840.5 316.884 841.8 316.984 842.6 317.084Z" fill="black"/>
<path d="M841.3 313.284C840.9 313.284 840.3 313.384 839.9 313.384L840 312.584H840.8V312.484C840.3 312.384 839.9 311.884 839.9 311.384C839.9 311.318 839.9 311.251 839.9 311.184H840.8C840.8 311.251 840.8 311.318 840.8 311.384C840.8 311.884 841.3 312.384 841.9 312.484C842.034 312.484 842.2 312.484 842.4 312.484H845.4V313.384L841.3 313.284Z" fill="black"/>
<path fill-rule="evenodd" clip-rule="evenodd" d="M842.8 305.384C844.9 305.384 845.6 306.384 845.5 307.184C845.5 308.184 844.6 308.984 842.7 308.984C840.8 308.884 839.9 307.984 840 307.084C840 306.084 840.9 305.384 842.8 305.384ZM842.7 308.084C843.6 308.084 844.8 307.984 844.9 307.184C844.9 306.484 843.6 306.284 842.8 306.284C841.9 306.284 840.7 306.384 840.6 307.084C840.6 307.884 841.9 308.084 842.7 308.084Z" fill="black"/>
<path fill-rule="evenodd" clip-rule="evenodd" d="M841.8 304.384C840.9 304.384 840.5 304.384 840.1 304.384V303.584H840.8C840.2 303.284 840 302.784 840 302.384C840 301.484 841.1 300.884 842.8 300.884C844.8 300.884 845.6 301.784 845.6 302.584C845.6 303.084 845.3 303.384 845 303.584H847.7L847.6 304.484L841.8 304.384ZM843.6 303.484C843.733 303.551 843.867 303.551 844 303.484C844.8 303.384 845 302.984 845 302.684C845 301.984 844 301.784 842.9 301.784C841.8 301.684 840.8 301.984 840.8 302.684C840.8 303.084 841.3 303.384 841.8 303.484C841.933 303.484 842.067 303.484 842.2 303.484H843.6Z" fill="black"/>
<path fill-rule="evenodd" clip-rule="evenodd" d="M842.9 299.284C844.6 299.284 845 298.584 845 297.984C845 297.684 844.9 297.284 844.8 297.084L845.4 296.984C845.6 297.284 845.7 297.784 845.7 298.184C845.6 299.484 844.6 300.084 842.9 300.084C841.2 300.084 840.1 299.284 840.1 298.284C840.1 297.084 841.3 296.684 842.5 296.684C842.7 296.684 842.866 296.718 843 296.784L842.9 299.284ZM842.3 297.584C841.2 297.484 840.7 297.884 840.7 298.284C840.7 298.884 841.5 299.184 842.3 299.184V297.584Z" fill="black"/>
<path d="M841.6 295.784C841 295.684 840.7 295.784 840.2 295.784V294.984H840.9C840.4 294.684 840.2 294.284 840.2 293.684C840.2 292.984 840.7 292.384 842 292.384L845.7 292.484V293.384L842.2 293.284C841.5 293.284 840.9 293.384 840.9 293.984C840.9 294.384 841.2 294.684 841.8 294.884C841.934 294.884 842.067 294.884 842.2 294.884L845.6 294.984V295.784H841.6Z" fill="black"/>
<path d="M890.1 321.684H890.6L897.3 324.084V324.884L890.8 322.484V325.184H890L890.1 321.684Z" fill="black"/>
<path fill-rule="evenodd" clip-rule="evenodd" d="M897.4 318.684H895.4V321.084H894.8L890.1 318.684V317.784L894.7 317.884V317.084H895.4V317.884H897.4V318.684ZM894.7 318.684H892.6C892.1 318.584 891.7 318.584 891.2 318.584C891.8 318.884 892.1 318.984 892.6 319.184L894.7 320.284V318.684Z" fill="black"/>
<path d="M891 313.084L890.9 315.084L892.9 315.384C892.834 315.318 892.834 315.251 892.9 315.184C892.9 314.784 893 314.184 893.4 313.784C893.8 313.384 894.3 313.184 895.1 313.184C896.5 313.184 897.6 314.184 897.5 315.484C897.5 315.884 897.4 316.384 897.2 316.684L896.5 316.484C896.6 316.284 896.8 315.884 896.8 315.484C896.8 314.684 896.3 314.084 895.2 314.084C894 313.984 893.5 314.684 893.5 315.684C893.5 315.884 893.5 316.084 893.5 316.284L890.2 315.684V313.084H891Z" fill="black"/>
<path fill-rule="evenodd" clip-rule="evenodd" d="M890.9 308.884C890.9 309.084 890.934 309.284 891 309.484C891.3 310.684 892.5 311.184 893.6 311.384V311.284C893.2 311.084 892.9 310.584 892.9 310.084C892.9 309.184 893.8 308.484 895.2 308.584C896.5 308.584 897.6 309.184 897.6 310.384C897.6 311.684 896.3 312.284 894.6 312.184C893.2 312.184 892.1 311.784 891.4 311.284C890.8 310.784 890.4 310.084 890.2 309.484C890.2 309.218 890.2 309.018 890.2 308.884H890.9ZM895.2 309.384C894.1 309.384 893.5 309.784 893.5 310.384C893.5 310.684 893.8 311.084 894.3 311.284C894.367 311.351 894.5 311.384 894.7 311.384C896.2 311.384 896.9 310.984 896.9 310.384C896.9 309.884 896.4 309.384 895.2 309.384Z" fill="black"/>
<path d="M897.5 302.084C897.6 302.384 897.7 302.884 897.7 303.384C897.7 304.084 897.5 304.684 896.9 305.184C896.3 305.684 895.3 306.084 893.9 305.984C891 305.984 890 304.484 890 303.084C890.067 302.618 890.167 302.284 890.3 302.084L891 302.284C890.9 302.484 890.8 302.684 890.8 303.084C890.8 304.084 891.5 305.084 893.9 305.084C896.2 305.184 896.9 304.284 897 303.384C897 303.084 896.9 302.884 896.9 302.884L894.4 302.784V303.784H893.7V301.984L897.5 302.084Z" fill="black"/>
<path fill-rule="evenodd" clip-rule="evenodd" d="M897.7 298.684L897.1 298.784C897.5 299.084 897.8 299.384 897.8 299.884C897.8 300.584 897.1 301.184 896.2 301.184C894.9 301.084 894.3 299.984 894.3 298.784H894.1C893.4 298.784 892.9 298.984 892.9 299.684C892.9 300.017 892.967 300.317 893.1 300.584L892.5 300.684C892.4 300.484 892.2 299.984 892.2 299.484C892.2 298.384 892.9 297.884 894.1 297.984H896.5C896.9 297.984 897.4 297.984 897.7 297.984V298.684ZM894.9 298.684C894.9 299.184 895 300.184 896.1 300.184C896.8 300.284 897.1 299.884 897.1 299.584C897.1 299.184 896.8 298.884 896.3 298.784C896.234 298.717 896.134 298.717 896 298.784L894.9 298.684Z" fill="black"/>
<path d="M893.7 296.684C893.3 296.684 892.7 296.684 892.3 296.684V295.984L893.2 295.884C892.7 295.684 892.3 295.184 892.3 294.684C892.3 294.618 892.3 294.584 892.3 294.584H893.2C893.133 294.651 893.1 294.718 893.1 294.784C893.1 295.284 893.6 295.684 894.3 295.784C894.433 295.851 894.566 295.884 894.7 295.884H897.7V296.784L893.7 296.684Z" fill="black"/>
<path fill-rule="evenodd" clip-rule="evenodd" d="M897.8 291.884H897.2C897.6 292.184 897.9 292.584 897.9 292.984C897.9 293.784 897.2 294.284 896.3 294.284C895 294.284 894.4 293.184 894.4 291.984L894.2 291.884C893.5 291.884 893 292.084 893 292.784C893 293.118 893.066 293.418 893.2 293.684L892.6 293.884C892.5 293.584 892.3 293.084 892.3 292.584C892.3 291.484 893 291.084 894.3 291.084H896.6C897 291.084 897.5 291.084 897.8 291.084V291.884ZM895 291.984C895 292.384 895.1 293.384 896.3 293.484C897 293.484 897.2 293.084 897.2 292.784C897.2 292.384 897 292.084 896.4 291.984C896.333 291.984 896.233 291.984 896.1 291.984H895Z" fill="black"/>
<path fill-rule="evenodd" clip-rule="evenodd" d="M892.5 286.484C892.9 286.484 893.3 286.484 894.2 286.584H897.2C898.6 286.584 899.1 286.784 899.5 287.184C899.9 287.484 900.1 287.984 900.1 288.584C900.1 289.084 900 289.484 899.8 289.784L899.1 289.584C899.3 289.384 899.4 288.984 899.4 288.584C899.4 287.884 899 287.484 897.8 287.484H897.2C897.6 287.684 897.9 288.084 897.8 288.484C897.8 289.484 896.7 290.084 895.2 290.084C893.2 289.984 892.3 289.084 892.4 288.284C892.4 287.684 892.8 287.484 893.1 287.284H892.5V286.484ZM894.3 287.384C894.167 287.384 894.033 287.384 893.9 287.384C893.6 287.484 893.1 287.684 893.1 288.184C893.1 288.784 893.9 289.184 895.1 289.184C896.5 289.184 897.1 288.784 897.1 288.284C897.1 287.984 897 287.684 896.4 287.484C896.2 287.418 896.033 287.384 895.9 287.384H894.3Z" fill="black"/>
<path fill-rule="evenodd" clip-rule="evenodd" d="M895.3 284.684C896.9 284.684 897.3 284.084 897.3 283.484C897.3 283.084 897.2 282.784 897.1 282.584L897.8 282.384C897.9 282.784 898 283.184 898 283.584C898 284.884 896.9 285.584 895.3 285.584C893.5 285.484 892.4 284.784 892.4 283.684C892.5 282.584 893.6 282.184 894.8 282.184C895 282.184 895.167 282.184 895.3 282.184V284.684ZM894.7 282.984C893.6 282.984 893.1 283.384 893.1 283.784C893.1 284.284 894 284.584 894.7 284.684V282.984Z" fill="black"/>
<path d="M36.5998 168.084L37.2998 169.284L36.5998 169.484L35.7998 167.884V167.184L42.9998 167.284V168.184L36.5998 168.084Z" fill="black"/>
<path d="M35.8998 161.884H36.3998L43.0998 164.384V165.184L36.5998 162.784V165.384H35.7998L35.8998 161.884Z" fill="black"/>
<path fill-rule="evenodd" clip-rule="evenodd" d="M35.6996 160.784C35.6329 160.451 35.5996 160.051 35.5996 159.584C35.5996 158.784 35.7996 158.284 36.1996 157.884C36.6996 157.284 37.6996 156.884 39.2996 156.884C40.9996 156.884 41.8996 157.384 42.3996 157.884C42.9996 158.384 43.1996 159.084 43.1996 159.884C43.1996 160.284 43.1996 160.584 43.0996 160.884L35.6996 160.784ZM42.3996 159.984C42.4663 159.851 42.4996 159.751 42.4996 159.684C42.4996 158.784 41.7996 157.784 39.2996 157.784C37.3996 157.784 36.2996 158.284 36.2996 159.484C36.2996 159.684 36.2996 159.784 36.2996 159.884L42.3996 159.984Z" fill="black"/>
<path fill-rule="evenodd" clip-rule="evenodd" d="M703.801 133.084C704.201 132.984 704.801 132.884 705.301 132.884C706.201 132.884 706.801 132.984 707.301 133.484C707.801 133.884 708.001 134.484 708.001 135.184C708.101 136.384 707.601 137.084 706.701 137.584C707.301 137.784 707.701 138.384 707.901 139.584C708.167 140.851 708.367 141.618 708.501 141.884H707.501C707.301 141.584 707.101 140.784 706.901 139.684C706.701 138.484 706.301 137.984 705.401 137.984H705.001L705.101 141.984H704.101L703.801 133.084ZM705.001 137.184H705.401C706.401 137.184 707.001 136.484 707.001 135.384C707.001 134.284 706.501 133.684 705.401 133.684C705.201 133.684 705.001 133.684 704.901 133.784L705.001 137.184Z" fill="black"/>
<path fill-rule="evenodd" clip-rule="evenodd" d="M713.401 138.484C713.501 140.984 712.401 141.784 711.401 141.884C710.201 141.884 709.201 140.884 709.201 138.584C709.101 136.184 710.101 135.184 711.201 135.184C712.401 135.084 713.401 136.184 713.401 138.484ZM710.201 138.584C710.201 139.584 710.501 141.084 711.401 141.084C712.301 140.984 712.401 139.484 712.401 138.484C712.401 137.484 712.101 135.984 711.201 135.984C710.301 135.984 710.201 137.584 710.201 138.584Z" fill="black"/>
<path fill-rule="evenodd" clip-rule="evenodd" d="M718.6 138.284C718.7 140.784 717.6 141.684 716.6 141.684C715.4 141.684 714.4 140.684 714.4 138.384C714.3 136.084 715.3 134.984 716.4 134.984C717.6 134.984 718.5 135.984 718.6 138.284ZM715.4 138.384C715.4 139.484 715.7 140.884 716.6 140.884C717.5 140.884 717.6 139.284 717.6 138.284C717.5 137.284 717.3 135.784 716.4 135.784C715.5 135.884 715.4 137.384 715.4 138.384Z" fill="black"/>
<path d="M720.201 141.484L720.001 135.784H719.201L719.101 134.984H719.901V134.584C719.901 133.884 720.001 133.184 720.401 132.584C720.801 132.184 721.301 131.984 721.701 131.984C722.034 131.984 722.301 132.051 722.501 132.184L722.401 132.984C722.301 132.884 722.101 132.884 721.801 132.884C721.101 132.884 720.901 133.684 721.001 134.584V134.984L722.201 134.884V135.684H721.001L721.201 141.384L720.201 141.484Z" fill="black"/>
<path d="M725.501 137.384V138.184L722.601 138.284V137.484L725.501 137.384Z" fill="black"/>
<path d="M729.3 137.284V138.084L726.4 138.184V137.384L729.3 137.284Z" fill="black"/>
<path fill-rule="evenodd" clip-rule="evenodd" d="M735.201 140.984L735.101 138.584L732.201 138.684V137.984L734.801 132.284L735.801 132.184L736.001 137.684L737.001 137.584V138.484H736.101V140.884L735.201 140.984ZM735.101 137.784L735.001 135.284C735.001 134.684 735.001 134.184 735.101 133.584H735.001C734.701 134.284 734.601 134.684 734.301 135.284L733.201 137.784H735.101Z" fill="black"/>
<path fill-rule="evenodd" clip-rule="evenodd" d="M741.901 136.384C742.001 139.484 741.101 140.884 739.801 140.884C738.501 140.884 737.601 139.384 737.501 136.484C737.401 133.584 738.201 131.984 739.601 131.984C741.001 131.884 741.801 133.584 741.901 136.384ZM738.501 136.484C738.601 138.584 739.001 139.984 739.901 139.984C740.701 139.984 741.001 138.484 740.901 136.384C740.801 134.384 740.401 132.784 739.601 132.884C738.801 132.884 738.501 134.384 738.501 136.484Z" fill="black"/>
<path d="M746.901 131.784V132.484L744.401 140.584L743.401 140.684L745.901 132.784L742.701 132.884V131.984L746.901 131.784Z" fill="black"/>
<path fill-rule="evenodd" clip-rule="evenodd" d="M751.001 140.384L750.901 139.684C750.601 140.184 750.201 140.484 749.601 140.584C748.801 140.584 748.101 139.884 748.001 138.784C748.001 137.184 749.201 136.384 750.701 136.284V136.084C750.701 135.184 750.401 134.684 749.601 134.684C749.201 134.684 748.901 134.784 748.601 135.084L748.301 134.284C748.601 134.084 749.201 133.884 749.801 133.884C751.101 133.784 751.701 134.684 751.701 136.084L751.801 138.884C751.901 139.384 751.901 139.984 752.001 140.384H751.001ZM750.701 136.984C750.201 137.084 748.901 137.184 749.001 138.584C749.001 139.384 749.401 139.684 749.801 139.684C750.201 139.684 750.601 139.384 750.701 138.684C750.768 138.551 750.768 138.418 750.701 138.284V136.984Z" fill="black"/>
<path fill-rule="evenodd" clip-rule="evenodd" d="M753.201 135.884C753.201 134.884 753.101 134.284 753.101 133.784H754.001L754.101 134.584C754.501 133.884 755.001 133.684 755.501 133.684C756.601 133.584 757.401 134.784 757.501 136.884C757.501 139.284 756.601 140.284 755.601 140.384C755.001 140.384 754.601 139.984 754.401 139.684L754.501 142.884H753.501L753.201 135.884ZM754.301 137.884C754.301 138.084 754.301 138.284 754.301 138.484C754.601 139.384 755.001 139.584 755.301 139.484C756.201 139.484 756.401 138.284 756.401 136.984C756.301 135.684 756.001 134.584 755.101 134.584C754.701 134.584 754.301 135.184 754.201 135.784C754.201 135.918 754.201 136.084 754.201 136.284L754.301 137.884Z" fill="black"/>
<path d="M707.001 154.084L707.101 154.884L704.101 154.984V154.184L707.001 154.084Z" fill="black"/>
<path d="M713.001 157.584C712.601 157.684 712.001 157.884 711.401 157.884C710.601 157.984 709.801 157.784 709.201 157.084C708.501 156.484 708.101 155.184 708.001 153.584C707.901 150.084 709.701 148.784 711.201 148.684C711.801 148.684 712.301 148.784 712.501 148.984L712.301 149.784C712.101 149.684 711.801 149.684 711.301 149.684C710.201 149.684 709.001 150.584 709.101 153.384C709.201 156.184 710.301 157.084 711.301 157.084C711.701 156.984 711.901 156.984 712.001 156.884L711.901 153.984H710.701V153.184L712.801 153.084L713.001 157.584Z" fill="black"/>
<path fill-rule="evenodd" clip-rule="evenodd" d="M717.001 157.684L716.901 156.984C716.601 157.484 716.101 157.784 715.601 157.784C714.701 157.784 714.001 157.084 714.001 155.984C713.901 154.384 715.201 153.584 716.701 153.584V153.384C716.601 152.484 716.401 151.884 715.601 151.884C715.201 151.884 714.801 152.084 714.501 152.284L714.301 151.584C714.501 151.384 715.101 151.084 715.801 151.084C717.101 151.084 717.701 151.884 717.701 153.384L717.801 156.184C717.801 156.684 717.801 157.184 717.901 157.584L717.001 157.684ZM716.801 154.384C716.201 154.384 715.001 154.484 715.001 155.984C715.101 156.784 715.501 157.084 715.901 157.084C716.301 157.084 716.701 156.684 716.801 156.084C716.801 155.951 716.801 155.818 716.801 155.684V154.384Z" fill="black"/>
<path d="M719.201 152.784C719.201 152.184 719.101 151.584 719.101 151.084H720.001L720.101 152.084C720.301 151.484 720.801 150.884 721.401 150.884C721.534 150.884 721.634 150.884 721.701 150.884V151.984C721.634 151.984 721.567 151.984 721.501 151.984C720.801 151.984 720.401 152.584 720.301 153.384C720.301 153.518 720.301 153.718 720.301 153.984L720.401 157.484L719.401 157.584L719.201 152.784Z" fill="black"/>
<path fill-rule="evenodd" clip-rule="evenodd" d="M725.201 157.384L725.101 156.684C724.801 157.184 724.401 157.484 723.801 157.484C723.001 157.584 722.301 156.884 722.201 155.684C722.201 154.084 723.501 153.384 724.901 153.284V153.084C724.901 152.184 724.601 151.584 723.801 151.684C723.401 151.684 723.101 151.784 722.801 151.984L722.501 151.284C722.801 151.084 723.401 150.784 724.001 150.784C725.301 150.784 725.901 151.584 726.001 153.084L726.101 155.884C726.101 156.384 726.101 156.884 726.201 157.284L725.201 157.384ZM724.901 154.084C724.401 154.084 723.101 154.284 723.201 155.684C723.201 156.484 723.601 156.784 724.001 156.784C724.501 156.784 724.801 156.384 724.901 155.784C724.968 155.651 725.001 155.518 725.001 155.384L724.901 154.084Z" fill="black"/>
<path fill-rule="evenodd" clip-rule="evenodd" d="M731.401 150.684C731.401 151.084 731.301 151.684 731.401 152.684L731.501 156.284C731.601 157.984 731.401 158.684 731.001 159.184C730.601 159.584 730.001 159.884 729.201 159.884C728.701 159.884 728.201 159.784 727.801 159.684L728.001 158.784C728.301 158.984 728.701 159.084 729.201 159.084C730.101 159.084 730.601 158.484 730.501 157.084V156.384C730.201 156.884 729.801 157.184 729.201 157.184C728.101 157.284 727.301 155.984 727.201 154.084C727.101 151.684 728.201 150.684 729.101 150.684C729.801 150.584 730.201 151.084 730.401 151.484V150.684H731.401ZM730.401 152.984C730.401 152.784 730.401 152.618 730.401 152.484C730.201 152.084 730.001 151.484 729.401 151.584C728.601 151.584 728.301 152.584 728.301 153.984C728.401 155.684 728.901 156.384 729.601 156.384C729.901 156.384 730.301 156.184 730.501 155.484C730.501 155.218 730.501 155.018 730.501 154.884L730.401 152.984Z" fill="black"/>
<path d="M732.801 152.284C732.801 151.784 732.801 151.084 732.701 150.584H733.701V151.584H733.801C734.001 150.984 734.501 150.484 735.101 150.384C735.168 150.384 735.234 150.418 735.301 150.484L735.401 151.484C735.335 151.484 735.234 151.484 735.101 151.484C734.501 151.484 734.001 152.084 733.901 152.884C733.901 153.084 733.901 153.284 733.901 153.484L734.001 157.084H733.001L732.801 152.284Z" fill="black"/>
<path d="M738.401 152.084C738.401 151.584 738.301 150.884 738.301 150.384H739.201L739.301 151.384C739.501 150.784 740.101 150.284 740.701 150.284C740.767 150.284 740.834 150.284 740.901 150.284V151.284C740.834 151.284 740.767 151.284 740.701 151.284C740.001 151.284 739.601 151.984 739.501 152.684C739.501 152.884 739.501 153.084 739.501 153.284L739.601 156.884H738.601L738.401 152.084Z" fill="black"/>
<path fill-rule="evenodd" clip-rule="evenodd" d="M745.6 153.384C745.7 155.884 744.6 156.784 743.6 156.884C742.4 156.884 741.5 155.884 741.4 153.584C741.3 151.184 742.3 150.184 743.4 150.184C744.6 150.084 745.6 151.184 745.6 153.384ZM742.4 153.484C742.5 154.584 742.7 156.084 743.6 155.984C744.5 155.984 744.6 154.484 744.6 153.484C744.6 152.484 744.3 150.984 743.4 150.984C742.5 150.984 742.4 152.584 742.4 153.484Z" fill="black"/>
<path fill-rule="evenodd" clip-rule="evenodd" d="M750.801 153.284C750.901 155.784 749.801 156.584 748.801 156.684C747.601 156.684 746.701 155.684 746.601 153.384C746.501 150.984 747.501 149.984 748.601 149.984C749.801 149.884 750.801 150.984 750.801 153.284ZM747.601 153.384C747.701 154.384 747.901 155.884 748.801 155.884C749.701 155.784 749.801 154.284 749.801 153.284C749.801 152.284 749.501 150.784 748.601 150.784C747.701 150.784 747.601 152.384 747.601 153.384Z" fill="black"/>
<path d="M752.401 156.484L752.201 150.784H751.401L751.301 149.984H752.201L752.101 149.584C752.101 148.884 752.201 148.184 752.701 147.584C753.001 147.184 753.501 146.984 753.901 146.984C754.301 146.984 754.567 147.018 754.701 147.084L754.601 147.984C754.501 147.884 754.301 147.884 754.001 147.884C753.301 147.884 753.201 148.684 753.201 149.484V149.884H754.401V150.684H753.201L753.401 156.384L752.401 156.484Z" fill="black"/>
<path fill-rule="evenodd" clip-rule="evenodd" d="M807.201 208.884C807.401 212.284 806.201 213.584 804.801 213.684C803.301 213.684 802.201 212.184 802.101 209.084C802.001 206.084 803.001 204.484 804.601 204.384C806.201 204.384 807.101 205.984 807.201 208.884ZM803.201 209.084C803.301 210.984 803.701 212.784 804.801 212.784C806.001 212.684 806.201 210.684 806.201 208.984C806.101 207.284 805.701 205.284 804.601 205.284C803.401 205.384 803.101 207.284 803.201 209.084Z" fill="black"/>
<path d="M809.001 206.884L810.001 210.484C810.101 210.984 810.201 211.584 810.301 212.084C810.401 211.584 810.501 210.984 810.601 210.484L811.201 206.884L812.301 206.784L810.801 213.384H809.901L808.001 206.984L809.001 206.884Z" fill="black"/>
<path fill-rule="evenodd" clip-rule="evenodd" d="M813.901 210.084C814.001 212.084 814.801 212.484 815.501 212.484C815.901 212.384 816.301 212.284 816.601 212.184L816.801 212.884C816.401 213.084 815.901 213.284 815.301 213.284C813.801 213.284 812.901 212.084 812.901 210.084C812.801 207.984 813.601 206.684 814.901 206.584C816.301 206.584 816.801 207.884 816.901 209.384C816.901 209.651 816.901 209.851 816.901 209.984L813.901 210.084ZM815.901 209.284C815.901 207.984 815.401 207.384 814.901 207.384C814.201 207.384 813.901 208.384 813.901 209.284H815.901Z" fill="black"/>
<path d="M818 208.284C818 207.684 817.9 207.084 817.9 206.584H818.8L818.9 207.584C819.1 206.984 819.7 206.484 820.3 206.384C820.367 206.384 820.434 206.384 820.5 206.384V207.484C820.434 207.484 820.367 207.484 820.3 207.484C819.7 207.484 819.2 208.084 819.1 208.884C819.1 209.084 819.1 209.284 819.1 209.484L819.2 213.084H818.2L818 208.284Z" fill="black"/>
<path d="M820.801 212.284C820.801 211.884 821.101 211.584 821.401 211.484C821.801 211.484 822.101 211.784 822.101 212.284C822.201 212.784 821.901 213.084 821.501 213.084C821.101 213.084 820.801 212.784 820.801 212.284Z" fill="black"/>
<path d="M884 350.384H887.4V351.284H885V354.384H887.3V355.284H885V359.384H884V350.384Z" fill="black"/>
<path d="M888.7 350.384H889.7V358.484H892.3V359.384H888.7V350.384Z" fill="black"/>
<path fill-rule="evenodd" clip-rule="evenodd" d="M885.1 263.384L884.5 266.084H883.5L885.5 257.084H886.7L888.7 266.084H887.7L887.1 263.384H885.1ZM886.9 262.584L886.5 260.284C886.3 259.584 886.2 258.884 886.1 258.184C885.9 258.884 885.8 259.684 885.7 260.284L885.2 262.584H886.9Z" fill="black"/>
<path fill-rule="evenodd" clip-rule="evenodd" d="M889.9 257.184C890.3 257.051 890.8 256.984 891.4 256.984C892.2 256.984 892.9 257.184 893.4 257.684C893.8 258.084 894.1 258.784 894.1 259.584C894.1 260.384 893.9 260.884 893.5 261.384C893 262.084 892.2 262.384 891.4 262.384C891.2 262.384 891.034 262.384 890.9 262.384V266.084H889.9V257.184ZM890.9 261.484C891 261.484 891.1 261.584 891.3 261.584C892.3 261.584 893 260.884 893 259.584C893 258.684 892.6 257.884 891.5 257.884C891.234 257.884 891.034 257.884 890.9 257.884V261.484Z" fill="black"/>
<path d="M85.9004 313.384V308.184H86.5004L87.5004 310.584C87.7004 311.084 87.9004 311.784 88.1004 312.384C88.1004 311.584 88.1004 310.884 88.1004 309.984V308.184H88.6004V313.384H88.0004L87.1004 310.884C86.8337 310.351 86.6004 309.751 86.4004 309.084C86.5004 309.784 86.5004 310.384 86.5004 311.584V313.384H85.9004Z" fill="black"/>
<path d="M92.1004 313.184C91.9004 313.284 91.5004 313.384 91.2004 313.384C90.8004 313.384 90.3004 313.284 90.0004 312.884C89.6004 312.484 89.4004 311.784 89.4004 310.784C89.4004 308.784 90.4004 308.084 91.3004 308.084C91.6337 308.084 91.9004 308.151 92.1004 308.284L91.9004 308.784C91.7671 308.717 91.5671 308.651 91.3004 308.584C90.7004 308.584 90.0004 309.184 90.0004 310.784C90.0004 312.384 90.6004 312.884 91.2004 312.884C91.4004 312.884 91.5337 312.851 91.6004 312.784V311.084H90.9004V310.584H92.1004V313.184Z" fill="black"/>
<path fill-rule="evenodd" clip-rule="evenodd" d="M94.5008 313.384L94.4008 312.984C94.2008 313.184 94.0008 313.384 93.6008 313.384C93.1008 313.384 92.8008 312.984 92.8008 312.384C92.8008 311.384 93.5008 310.984 94.4008 310.984V310.884C94.4008 310.384 94.2008 309.984 93.8008 309.984C93.5341 309.984 93.3008 310.051 93.1008 310.184L93.0008 309.784C93.2008 309.684 93.5008 309.584 93.9008 309.584C94.6008 309.584 95.0008 310.084 95.0008 310.884V312.484C95.0008 312.784 95.0008 313.084 95.0008 313.384H94.5008ZM94.4008 311.384C94.1008 311.384 93.4008 311.484 93.4008 312.284C93.4008 312.784 93.6008 312.984 93.8008 312.984C94.1008 312.984 94.3008 312.784 94.4008 312.384C94.4008 312.317 94.4008 312.251 94.4008 312.184V311.384Z" fill="black"/>
<path d="M98.1002 308.284V308.684L96.5002 313.384H95.9002L97.5002 308.884H95.7002V308.284H98.1002Z" fill="black"/>
<path d="M103.999 253.584H102.199V250.684H103.999V253.584ZM99.3992 253.584H96.4992V250.784H99.3992V253.584ZM93.6992 253.584H90.8992V250.684H93.6992V253.584ZM87.9992 253.584H85.1992V250.784H87.9992V253.584ZM82.2992 253.584H79.4992V250.684H82.2992V253.584ZM76.5992 253.584H73.7992V250.784H76.5992V253.584ZM70.8992 253.584H68.0992V250.684H70.8992V253.584ZM65.1992 253.584H62.3992V250.784H65.1992V253.584ZM59.5992 253.584H56.6992V250.784H59.5992V253.584Z" fill="#272425"/>
<path d="M62.0012 183.284H20.2012V180.484H62.0012V183.284Z" fill="#272425"/>
<path d="M671.2 419.284C671.5 419.484 672 419.684 672.5 419.684C673.4 419.684 674 419.084 674 418.184C674 417.284 673.5 416.784 672.8 416.284C672.1 415.784 671.1 414.984 671.1 413.784C671.1 412.384 672.1 411.384 673.5 411.384C674 411.384 674.5 411.584 674.8 411.784L674.5 412.584C674.3 412.484 673.9 412.284 673.4 412.284C672.5 412.284 672.1 412.984 672.1 413.584C672.1 414.484 672.6 414.884 673.5 415.484C674.5 416.184 675 417.084 675 418.084C675 419.584 673.9 420.584 672.5 420.584C671.9 420.584 671.2 420.384 671 420.184L671.2 419.284Z" fill="black"/>
<path fill-rule="evenodd" clip-rule="evenodd" d="M677 417.384C677 419.384 677.8 419.784 678.6 419.784C679 419.784 679.4 419.684 679.6 419.484L679.8 420.284C679.4 420.484 678.9 420.584 678.4 420.584C676.8 420.584 676 419.284 676 417.384C676 415.284 676.9 413.884 678.2 413.884C679.5 413.884 680.1 415.284 680.1 416.784C680.1 417.051 680.067 417.251 680 417.384H677ZM679.1 416.584C679.1 415.284 678.6 414.684 678.1 414.684C677.5 414.684 677.1 415.684 677.1 416.584H679.1Z" fill="black"/>
<path d="M681.2 411.284H682.3V420.484H681.2V411.284Z" fill="black"/>
<path fill-rule="evenodd" clip-rule="evenodd" d="M684.6 417.384C684.6 419.384 685.4 419.784 686.1 419.784C686.6 419.784 686.9 419.684 687.2 419.484L687.4 420.284C687 420.484 686.5 420.584 685.9 420.584C684.4 420.584 683.6 419.284 683.6 417.384C683.6 415.284 684.5 413.884 685.8 413.884C687.1 413.884 687.6 415.284 687.6 416.784C687.6 417.051 687.6 417.251 687.6 417.384H684.6ZM686.6 416.584C686.7 415.284 686.2 414.684 685.7 414.684C685 414.684 684.7 415.684 684.6 416.584H686.6Z" fill="black"/>
<path d="M692 420.384C691.7 420.484 691.3 420.584 690.9 420.584C689.5 420.584 688.5 419.484 688.5 417.284C688.5 415.484 689.5 413.984 691.1 413.984C691.4 413.984 691.8 414.084 692 414.184L691.8 414.984C691.7 414.884 691.4 414.784 691 414.784C690 414.784 689.5 416.084 689.5 417.284C689.5 418.784 690.1 419.784 691.1 419.784C691.4 419.784 691.6 419.684 691.8 419.584L692 420.384Z" fill="black"/>
<path d="M694.4 412.284V414.084H695.6V414.784H694.4V418.684C694.4 419.484 694.7 419.784 695.1 419.784C695.233 419.784 695.367 419.751 695.5 419.684V420.484C695.3 420.551 695.033 420.584 694.7 420.584C694.3 420.584 694 420.484 693.7 420.184C693.5 419.884 693.3 419.484 693.3 418.584V414.784H692.5V414.084H693.3V412.584L694.4 412.284Z" fill="black"/>
<path fill-rule="evenodd" clip-rule="evenodd" d="M697.2 417.384C697.2 419.384 698 419.784 698.8 419.784C699.2 419.784 699.6 419.684 699.8 419.484L700 420.284C699.6 420.484 699.1 420.584 698.6 420.584C697 420.584 696.2 419.284 696.2 417.384C696.2 415.284 697.1 413.884 698.4 413.884C699.7 413.884 700.2 415.284 700.2 416.784C700.2 417.051 700.2 417.251 700.2 417.384H697.2ZM699.3 416.584C699.3 415.284 698.8 414.684 698.3 414.684C697.6 414.684 697.3 415.684 697.2 416.584H699.3Z" fill="black"/>
<path fill-rule="evenodd" clip-rule="evenodd" d="M705.3 411.284V418.984C705.3 419.384 705.4 420.184 705.4 420.484H704.5L704.4 419.684C704.2 420.184 703.7 420.584 703 420.584C701.9 420.584 701.1 419.484 701.1 417.284C701.1 414.984 702.1 413.884 703.1 413.884C703.6 413.884 704 414.184 704.3 414.684V411.284H705.3ZM704.3 416.484C704.3 416.351 704.3 416.218 704.3 416.084C704.2 415.384 703.8 414.784 703.3 414.784C702.4 414.784 702.1 415.984 702.1 417.284C702.1 418.684 702.5 419.784 703.2 419.784C703.6 419.784 704 419.584 704.2 418.684C704.266 418.551 704.3 418.384 704.3 418.184V416.484Z" fill="black"/>
<path d="M709 415.684C709 414.984 709 414.584 708.9 414.084H709.8L709.9 414.884C710.2 414.284 710.7 413.884 711.4 413.884C712 413.884 712.5 414.184 712.7 414.884H712.8C712.934 414.551 713.134 414.318 713.4 414.184C713.667 413.984 713.967 413.884 714.3 413.884C715.2 413.884 715.9 414.584 715.9 416.184V420.484H714.8V416.484C714.8 415.584 714.7 414.784 713.9 414.784C713.5 414.784 713.1 415.184 713 415.784C712.934 415.918 712.9 416.118 712.9 416.384V420.484H711.9V416.284C711.9 415.584 711.8 414.784 711 414.784C710.6 414.784 710.2 415.184 710.1 415.884C710.034 416.018 710 416.184 710 416.384V420.484H709V415.684Z" fill="black"/>
<path fill-rule="evenodd" clip-rule="evenodd" d="M719.9 420.484V419.884H719.8C719.5 420.284 719.1 420.584 718.5 420.584C717.7 420.584 717 419.884 717 418.784C717 417.184 718.3 416.384 719.8 416.384V416.184C719.8 415.384 719.5 414.784 718.7 414.784C718.3 414.784 718 414.884 717.7 415.084L717.4 414.384C717.7 414.184 718.3 413.884 718.9 413.884C720.2 413.884 720.8 414.784 720.8 416.284V419.084C720.8 419.584 720.8 420.084 720.9 420.484H719.9ZM719.7 417.184C719.2 417.184 717.9 417.284 717.9 418.684C717.9 419.484 718.4 419.784 718.7 419.784C719.2 419.784 719.6 419.484 719.7 418.884C719.7 418.751 719.7 418.618 719.7 418.484V417.184Z" fill="black"/>
<path d="M723.5 412.284V414.084H724.7V414.784H723.5V418.684C723.5 419.484 723.8 419.784 724.1 419.784C724.3 419.784 724.466 419.751 724.6 419.684V420.484C724.4 420.551 724.133 420.584 723.8 420.584C723.4 420.584 723.1 420.484 722.8 420.184C722.6 419.884 722.4 419.484 722.4 418.584V414.784H721.6V414.084H722.4V412.584L723.5 412.284Z" fill="black"/>
<path fill-rule="evenodd" clip-rule="evenodd" d="M726.3 417.384C726.3 419.384 727.1 419.784 727.8 419.784C728.3 419.784 728.7 419.684 728.9 419.484L729.1 420.284C728.7 420.484 728.2 420.584 727.7 420.584C726.1 420.584 725.3 419.284 725.3 417.384C725.3 415.284 726.2 413.884 727.5 413.884C728.8 413.884 729.3 415.284 729.3 416.784C729.3 417.051 729.3 417.251 729.3 417.384H726.3ZM728.3 416.584C728.4 415.284 727.9 414.684 727.4 414.684C726.7 414.684 726.4 415.684 726.3 416.584H728.3Z" fill="black"/>
<path d="M730.5 415.684C730.5 415.184 730.4 414.484 730.4 414.084H731.4V415.084C731.7 414.484 732.2 413.884 732.8 413.884C732.867 413.951 732.934 413.984 733 413.984V414.984C732.934 414.984 732.867 414.984 732.8 414.984C732.2 414.984 731.7 415.584 731.6 416.384C731.534 416.518 731.5 416.684 731.5 416.884V420.484H730.5V415.684Z" fill="black"/>
<path d="M735 412.384C735 412.784 734.8 412.984 734.4 412.984C734 412.984 733.8 412.784 733.8 412.384C733.8 411.984 734.1 411.684 734.4 411.684C734.8 411.684 735 411.984 735 412.384ZM733.9 420.484V414.084H734.9V420.484H733.9Z" fill="black"/>
<path fill-rule="evenodd" clip-rule="evenodd" d="M739 420.484L738.9 419.884C738.6 420.284 738.1 420.584 737.6 420.584C736.7 420.584 736.1 419.884 736.1 418.784C736.1 417.184 737.3 416.384 738.8 416.384V416.184C738.8 415.384 738.6 414.784 737.8 414.784C737.4 414.784 737 414.884 736.7 415.084L736.5 414.384C736.7 414.184 737.3 413.884 738 413.884C739.3 413.884 739.9 414.784 739.9 416.284V419.084C739.9 419.584 739.9 420.084 739.9 420.484H739ZM738.9 417.184C738.3 417.184 737.1 417.284 737.1 418.684C737.1 419.484 737.5 419.784 737.9 419.784C738.3 419.784 738.7 419.484 738.8 418.884C738.866 418.751 738.9 418.618 738.9 418.484V417.184Z" fill="black"/>
<path d="M741.4 411.284H742.4V420.484H741.4V411.284Z" fill="black"/>
<path fill-rule="evenodd" clip-rule="evenodd" d="M750.1 414.084C750.1 414.484 750.1 415.084 750.1 416.084V419.684C750.1 421.384 749.9 422.084 749.4 422.484C749 422.984 748.4 423.184 747.7 423.184C747.2 423.184 746.6 423.084 746.3 422.884L746.5 422.084C746.8 422.184 747.2 422.384 747.7 422.384C748.6 422.384 749.1 421.884 749.1 420.384V419.684H749C748.8 420.184 748.3 420.484 747.8 420.484C746.6 420.484 745.9 419.184 745.9 417.284C745.9 414.884 747 413.884 747.9 413.884C748.6 413.884 748.9 414.384 749.1 414.784H749.2V414.084H750.1ZM749 416.284C749 416.084 749 415.918 749 415.784C748.9 415.384 748.6 414.784 748 414.784C747.3 414.784 746.9 415.784 746.9 417.284C746.9 418.884 747.4 419.684 748 419.684C748.4 419.684 748.8 419.484 749 418.784C749 418.518 749 418.318 749 418.184V416.284Z" fill="black"/>
<path fill-rule="evenodd" clip-rule="evenodd" d="M754.1 420.484V419.884H754C753.7 420.284 753.3 420.584 752.7 420.584C751.9 420.584 751.2 419.884 751.2 418.784C751.2 417.184 752.5 416.384 754 416.384V416.184C754 415.384 753.7 414.784 752.9 414.784C752.5 414.784 752.2 414.884 751.9 415.084L751.6 414.384C751.9 414.184 752.5 413.884 753.1 413.884C754.4 413.884 755 414.784 755 416.284V419.084C755 419.584 755 420.084 755.1 420.484H754.1ZM753.9 417.184C753.4 417.184 752.1 417.284 752.1 418.684C752.1 419.484 752.6 419.784 752.9 419.784C753.4 419.784 753.8 419.484 753.9 418.884C753.9 418.751 753.9 418.618 753.9 418.484V417.184Z" fill="black"/>
<path d="M756.5 415.684C756.5 415.184 756.5 414.484 756.5 414.084H757.4V415.084H757.5C757.7 414.484 758.2 413.884 758.8 413.884C758.867 413.951 758.933 413.984 759 413.984V414.984C758.933 414.984 758.867 414.984 758.8 414.984C758.2 414.984 757.7 415.584 757.6 416.384C757.533 416.518 757.5 416.684 757.5 416.884V420.484H756.5V415.684Z" fill="black"/>
<path fill-rule="evenodd" clip-rule="evenodd" d="M762.4 420.484L762.3 419.884C762 420.284 761.5 420.584 761 420.584C760.1 420.584 759.5 419.884 759.5 418.784C759.5 417.184 760.8 416.384 762.2 416.384V416.184C762.2 415.384 762 414.784 761.2 414.784C760.8 414.784 760.4 414.884 760.1 415.084L759.9 414.384C760.2 414.184 760.8 413.884 761.4 413.884C762.7 413.884 763.3 414.784 763.3 416.284V419.084C763.3 419.584 763.3 420.084 763.3 420.484H762.4ZM762.3 417.184C761.7 417.184 760.5 417.284 760.5 418.684C760.5 419.484 760.9 419.784 761.3 419.784C761.7 419.784 762.1 419.484 762.3 418.884C762.3 418.751 762.3 418.618 762.3 418.484V417.184Z" fill="black"/>
<path fill-rule="evenodd" clip-rule="evenodd" d="M768.7 414.084C768.7 414.484 768.7 415.084 768.7 416.084V419.684C768.7 421.384 768.5 422.084 768 422.484C767.7 422.984 767 423.184 766.3 423.184C765.8 423.184 765.2 423.084 764.9 422.884L765.1 422.084C765.4 422.184 765.8 422.384 766.3 422.384C767.2 422.384 767.7 421.884 767.7 420.384V419.684H767.6C767.4 420.184 766.9 420.484 766.4 420.484C765.2 420.484 764.5 419.184 764.5 417.284C764.5 414.884 765.6 413.884 766.5 413.884C767.2 413.884 767.5 414.384 767.7 414.784H767.8V414.084H768.7ZM767.6 416.284C767.6 416.084 767.6 415.918 767.6 415.784C767.5 415.384 767.2 414.784 766.6 414.784C765.9 414.784 765.5 415.784 765.5 417.284C765.5 418.884 766 419.684 766.6 419.684C767 419.684 767.4 419.484 767.6 418.784C767.6 418.518 767.6 418.318 767.6 418.184V416.284Z" fill="black"/>
<path fill-rule="evenodd" clip-rule="evenodd" d="M770.9 417.384C770.9 419.384 771.7 419.784 772.5 419.784C772.9 419.784 773.3 419.684 773.5 419.484L773.7 420.284C773.3 420.484 772.8 420.584 772.3 420.584C770.7 420.584 769.9 419.284 769.9 417.384C769.9 415.284 770.8 413.884 772.1 413.884C773.4 413.884 773.9 415.284 773.9 416.784C773.9 417.051 773.9 417.251 773.9 417.384H770.9ZM773 416.584C773 415.284 772.5 414.684 772 414.684C771.3 414.684 771 415.684 770.9 416.584H773Z" fill="black"/>
<path fill-rule="evenodd" clip-rule="evenodd" d="M781.2 411.284V418.984C781.2 419.384 781.2 420.184 781.2 420.484H780.4L780.3 419.684H780.2C780 420.184 779.6 420.584 778.9 420.584C777.8 420.584 777 419.484 777 417.284C777 414.984 778 413.884 779 413.884C779.4 413.884 779.9 414.184 780.1 414.684H780.2V411.284H781.2ZM780.1 416.484C780.167 416.351 780.167 416.218 780.1 416.084C780.1 415.384 779.7 414.784 779.2 414.784C778.3 414.784 778 415.984 778 417.284C778 418.684 778.4 419.784 779.1 419.784C779.4 419.784 779.9 419.584 780.1 418.684C780.1 418.551 780.1 418.384 780.1 418.184V416.484Z" fill="black"/>
<path fill-rule="evenodd" clip-rule="evenodd" d="M786.7 417.284C786.7 419.784 785.5 420.584 784.5 420.584C783.4 420.584 782.4 419.584 782.4 417.284C782.4 414.884 783.5 413.884 784.6 413.884C785.7 413.884 786.7 414.984 786.7 417.284ZM783.4 417.284C783.4 418.384 783.6 419.784 784.6 419.784C785.5 419.784 785.6 418.284 785.6 417.284C785.6 416.284 785.5 414.784 784.5 414.784C783.6 414.784 783.4 416.284 783.4 417.284Z" fill="black"/>
<path fill-rule="evenodd" clip-rule="evenodd" d="M791.9 417.284C791.9 419.784 790.7 420.584 789.7 420.584C788.6 420.584 787.6 419.584 787.6 417.284C787.6 414.884 788.7 413.884 789.8 413.884C790.9 413.884 791.9 414.984 791.9 417.284ZM788.6 417.284C788.6 418.384 788.8 419.784 789.8 419.784C790.7 419.784 790.8 418.284 790.8 417.284C790.8 416.284 790.7 414.784 789.7 414.784C788.8 414.784 788.6 416.284 788.6 417.284Z" fill="black"/>
<path d="M793.1 415.684C793.1 415.184 793 414.484 793 414.084H794V415.084C794.2 414.484 794.8 413.884 795.4 413.884C795.467 413.951 795.533 413.984 795.6 413.984V414.984C795.533 414.984 795.467 414.984 795.4 414.984C794.7 414.984 794.3 415.584 794.2 416.384C794.133 416.518 794.1 416.684 794.1 416.884V420.484H793.1V415.684Z" fill="black"/>
<path d="M673.9 432.684V433.484H671V432.684H673.9Z" fill="black"/>
<path d="M677.7 432.684V433.484H674.8V432.684H677.7Z" fill="black"/>
<path fill-rule="evenodd" clip-rule="evenodd" d="M683 432.184C683 435.384 682 436.684 680.7 436.684C679.4 436.684 678.6 435.084 678.6 432.284C678.6 429.284 679.4 427.784 680.9 427.784C682.3 427.784 683 429.484 683 432.184ZM679.6 432.284C679.6 434.384 680 435.784 680.8 435.784C681.6 435.784 682 434.284 682 432.284C682 430.184 681.6 428.684 680.8 428.684C680 428.684 679.6 430.184 679.6 432.284Z" fill="black"/>
<path fill-rule="evenodd" clip-rule="evenodd" d="M684.3 435.784C684.6 435.784 684.7 435.784 685 435.784C685.4 435.584 685.8 435.384 686.2 435.084C686.6 434.484 687 433.684 687.2 432.584H687.1C686.8 432.984 686.4 433.284 685.7 433.284C684.6 433.284 683.8 432.284 683.8 430.684C683.8 429.184 684.7 427.784 686 427.784C687.5 427.784 688.2 429.384 688.2 431.284C688.2 432.984 687.8 434.384 687.1 435.284C686.5 435.984 685.8 436.484 685 436.684C684.733 436.684 684.5 436.684 684.3 436.684V435.784ZM684.8 430.584C684.8 431.884 685.3 432.484 686 432.484C686.5 432.484 686.9 432.184 687.1 431.784C687.2 431.584 687.2 431.484 687.2 431.184C687.2 429.384 686.7 428.584 686 428.584C685.4 428.584 684.8 429.084 684.8 430.584Z" fill="black"/>
<path fill-rule="evenodd" clip-rule="evenodd" d="M689.5 435.784C689.8 435.784 690 435.784 690.2 435.784C690.6 435.584 691.1 435.384 691.4 435.084C691.9 434.484 692.3 433.684 692.4 432.584C692 432.984 691.6 433.284 691 433.284C689.9 433.284 689.1 432.284 689.1 430.684C689.1 429.184 689.9 427.784 691.3 427.784C692.7 427.784 693.4 429.384 693.4 431.284C693.4 432.984 693 434.384 692.3 435.284C691.8 435.984 691 436.484 690.3 436.684C690.033 436.684 689.766 436.684 689.5 436.684V435.784ZM690.1 430.584C690.1 431.884 690.6 432.484 691.3 432.484C691.7 432.484 692.1 432.184 692.3 431.784C692.4 431.584 692.4 431.484 692.4 431.184C692.4 429.384 691.9 428.584 691.2 428.584C690.7 428.584 690.1 429.084 690.1 430.584Z" fill="black"/>
<path fill-rule="evenodd" clip-rule="evenodd" d="M695.8 433.884L695.2 436.584H694.2L696.2 427.584H697.4L699.4 436.584H698.4L697.8 433.884H695.8ZM697.6 433.084L697.2 430.784C697 430.084 696.9 429.384 696.8 428.684H696.7C696.6 429.384 696.5 430.184 696.4 430.784L695.9 433.084H697.6Z" fill="black"/>
<path fill-rule="evenodd" clip-rule="evenodd" d="M700.4 432.184C700.4 431.184 700.4 430.584 700.4 430.084H701.3L701.4 430.984C701.7 430.284 702.3 429.984 702.8 429.984C703.9 429.984 704.6 431.184 704.6 433.384C704.6 435.784 703.6 436.684 702.6 436.684C702 436.684 701.7 436.284 701.5 435.984V439.184H700.4V432.184ZM701.5 434.284C701.5 434.484 701.5 434.651 701.5 434.784C701.7 435.684 702.2 435.884 702.5 435.884C703.3 435.884 703.6 434.684 703.6 433.384C703.6 432.084 703.3 430.884 702.5 430.884C702 430.884 701.6 431.484 701.5 432.084C701.5 432.284 701.5 432.451 701.5 432.584V434.284Z" fill="black"/>
<path d="M705.3 435.884C705.3 435.484 705.7 435.184 706 435.184C706.4 435.184 706.7 435.484 706.7 435.884C706.7 436.384 706.5 436.684 706 436.684C705.6 436.684 705.3 436.384 705.3 435.884Z" fill="black"/>
<path d="M708 435.884C708 435.484 708.3 435.184 708.7 435.184C709.1 435.184 709.4 435.484 709.4 435.884C709.4 436.384 709.1 436.684 708.7 436.684C708.3 436.684 708 436.384 708 435.884Z" fill="black"/>
<path d="M713.9 436.484C713.7 436.584 713.3 436.684 712.8 436.684C711.4 436.684 710.5 435.584 710.5 433.384C710.5 431.484 711.4 429.984 713 429.984C713.4 429.984 713.7 430.084 713.9 430.184L713.7 431.084C713.6 430.984 713.3 430.884 713 430.884C712 430.884 711.5 432.084 711.5 433.384C711.5 434.884 712.1 435.784 713 435.784C713.3 435.784 713.5 435.784 713.8 435.684L713.9 436.484Z" fill="black"/>
<path fill-rule="evenodd" clip-rule="evenodd" d="M718.8 433.384C718.8 435.884 717.6 436.684 716.6 436.684C715.4 436.684 714.5 435.684 714.5 433.384C714.5 430.984 715.6 429.984 716.7 429.984C717.8 429.984 718.8 431.084 718.8 433.384ZM715.5 433.384C715.5 434.384 715.7 435.884 716.7 435.884C717.5 435.884 717.7 434.384 717.7 433.384C717.7 432.384 717.5 430.884 716.6 430.884C715.7 430.884 715.5 432.384 715.5 433.384Z" fill="black"/>
<path d="M720 427.284H721V436.584H720V427.284Z" fill="black"/>
<path d="M722.6 427.284H723.6V436.584H722.6V427.284Z" fill="black"/>
<path fill-rule="evenodd" clip-rule="evenodd" d="M725.9 433.484C726 435.384 726.7 435.884 727.5 435.884C727.9 435.884 728.3 435.784 728.6 435.584L728.7 436.384C728.4 436.584 727.8 436.684 727.3 436.684C725.7 436.684 724.9 435.384 724.9 433.384C724.9 431.284 725.8 429.984 727.1 429.984C728.5 429.984 729 431.384 729 432.884C729 433.084 729 433.284 729 433.484H725.9ZM727.9 432.684C727.9 431.384 727.4 430.784 726.9 430.784C726.3 430.784 725.9 431.784 725.9 432.684H727.9Z" fill="black"/>
<path d="M733.3 436.484C733.1 436.584 732.7 436.684 732.2 436.684C730.8 436.684 729.9 435.584 729.9 433.384C729.9 431.484 730.8 429.984 732.4 429.984C732.8 429.984 733.2 430.084 733.3 430.184L733.1 431.084C733 430.984 732.7 430.884 732.4 430.884C731.4 430.884 730.9 432.084 730.9 433.384C730.9 434.884 731.5 435.784 732.4 435.784C732.7 435.784 732.9 435.784 733.2 435.684L733.3 436.484Z" fill="black"/>
<path d="M735.7 428.384V430.084H737V430.884H735.7V434.784C735.7 435.584 736 435.784 736.4 435.784C736.6 435.784 736.734 435.784 736.8 435.784L736.9 436.584C736.7 436.651 736.434 436.684 736.1 436.684C735.7 436.684 735.3 436.584 735.1 436.284C734.8 435.984 734.7 435.584 734.7 434.684V430.884H733.9V430.084H734.7V428.684L735.7 428.384Z" fill="black"/>
<path d="M739.1 428.484C739.1 428.884 738.8 429.084 738.4 429.084C738.1 429.084 737.8 428.884 737.8 428.484C737.8 428.084 738.1 427.784 738.4 427.784C738.8 427.784 739.1 428.084 739.1 428.484ZM738 436.584V430.084H739V436.584H738Z" fill="black"/>
<path fill-rule="evenodd" clip-rule="evenodd" d="M744.5 433.384C744.5 435.884 743.3 436.684 742.3 436.684C741.1 436.684 740.2 435.684 740.2 433.384C740.2 430.984 741.3 429.984 742.4 429.984C743.5 429.984 744.5 431.084 744.5 433.384ZM741.2 433.384C741.2 434.384 741.4 435.884 742.4 435.884C743.2 435.884 743.4 434.384 743.4 433.384C743.4 432.384 743.2 430.884 742.3 430.884C741.4 430.884 741.2 432.384 741.2 433.384Z" fill="black"/>
<path d="M745.7 431.784C745.7 430.984 745.6 430.684 745.6 430.084H746.5L746.6 430.884C746.9 430.384 747.4 429.984 748.1 429.984C749 429.984 749.7 430.684 749.7 432.284V436.584H748.6V432.384C748.6 431.684 748.5 430.884 747.7 430.884C747.3 430.884 746.9 431.284 746.8 431.984C746.733 432.118 746.7 432.284 746.7 432.484V436.584H745.7V431.784Z" fill="black"/>
<path d="M312.4 439.884C312.133 440.018 311.7 440.118 311.1 440.184C309.3 440.184 308.1 438.684 308.1 435.684C308.1 432.084 309.9 430.984 311.3 430.984C311.8 430.984 312.2 431.084 312.4 431.184L312.2 432.084C312 431.984 311.7 431.884 311.3 431.884C310.3 431.884 309.2 432.784 309.2 435.584C309.2 438.284 310.2 439.184 311.3 439.184C311.7 439.184 312 439.084 312.2 438.984L312.4 439.884Z" fill="black"/>
<path fill-rule="evenodd" clip-rule="evenodd" d="M317.199 436.784C317.199 439.284 315.999 440.184 314.999 440.184C313.899 440.184 312.899 439.084 312.899 436.784C312.899 434.484 313.999 433.484 315.099 433.484C316.199 433.484 317.199 434.584 317.199 436.784ZM313.999 436.784C313.999 437.884 314.099 439.384 315.099 439.384C315.999 439.384 316.099 437.784 316.099 436.784C316.099 435.784 315.999 434.284 314.999 434.284C314.099 434.284 313.999 435.784 313.999 436.784Z" fill="black"/>
<path d="M318.399 430.784H319.399V440.084H318.399V430.784Z" fill="black"/>
<path fill-rule="evenodd" clip-rule="evenodd" d="M324.999 436.784C324.999 439.284 323.799 440.184 322.799 440.184C321.699 440.184 320.699 439.084 320.699 436.784C320.699 434.484 321.799 433.484 322.899 433.484C324.099 433.484 324.999 434.584 324.999 436.784ZM321.799 436.784C321.799 437.884 321.999 439.384 322.899 439.384C323.799 439.384 323.999 437.784 323.999 436.784C323.999 435.784 323.799 434.284 322.899 434.284C321.899 434.284 321.799 435.784 321.799 436.784Z" fill="black"/>
<path d="M330.099 438.284C330.099 438.984 330.099 439.584 330.199 440.084H329.299L329.199 439.384C328.999 439.684 328.499 440.184 327.799 440.184C326.599 440.184 326.199 439.284 326.199 437.684V433.584H327.199V437.484C327.199 438.584 327.399 439.284 328.099 439.284C328.699 439.284 328.999 438.684 328.999 438.484C329.066 438.284 329.099 438.084 329.099 437.884V433.584H330.099V438.284Z" fill="black"/>
<path d="M331.6 435.284C331.6 434.684 331.6 434.084 331.6 433.584H332.5V434.584H332.6C332.8 433.984 333.3 433.484 333.9 433.484C333.966 433.484 334.033 433.484 334.1 433.484V434.584C334.033 434.518 333.966 434.484 333.9 434.484C333.3 434.484 332.8 435.084 332.7 435.884C332.633 436.084 332.6 436.284 332.6 436.484V440.084H331.6V435.284Z" fill="black"/>
<path fill-rule="evenodd" clip-rule="evenodd" d="M335.5 436.884C335.6 438.884 336.3 439.284 337.1 439.284C337.5 439.284 337.9 439.184 338.2 439.084L338.3 439.784C338 439.984 337.4 440.184 336.9 440.184C335.3 440.184 334.5 438.884 334.5 436.884C334.5 434.784 335.4 433.484 336.7 433.484C338.1 433.484 338.6 434.884 338.6 436.284C338.6 436.551 338.6 436.751 338.6 436.884H335.5ZM337.5 436.184C337.5 434.884 337 434.284 336.5 434.284C335.9 434.284 335.5 435.284 335.5 436.184H337.5Z" fill="black"/>
<path fill-rule="evenodd" clip-rule="evenodd" d="M343.7 430.784V438.484C343.7 438.984 343.7 439.684 343.7 440.084H342.8V439.284H342.7C342.5 439.684 342 440.184 341.4 440.184C340.3 440.184 339.5 438.984 339.5 436.884C339.5 434.584 340.4 433.484 341.4 433.484C341.9 433.484 342.4 433.684 342.6 434.284V430.784H343.7ZM342.7 436.084C342.7 435.884 342.7 435.718 342.7 435.584C342.6 434.984 342.2 434.384 341.7 434.384C340.9 434.384 340.6 435.584 340.6 436.884C340.6 438.184 340.9 439.284 341.7 439.284C342 439.284 342.4 439.084 342.7 438.184C342.7 438.051 342.7 437.918 342.7 437.784V436.084Z" fill="black"/>
<path fill-rule="evenodd" clip-rule="evenodd" d="M347.399 431.184C347.899 431.084 348.399 430.984 348.899 430.984C349.799 430.984 350.499 431.184 350.899 431.584C351.399 432.084 351.599 432.684 351.599 433.384C351.599 434.584 350.999 435.284 350.099 435.684V435.784C350.799 435.984 351.099 436.584 351.299 437.784C351.566 439.051 351.766 439.818 351.899 440.084H350.799C350.699 439.784 350.499 438.884 350.299 437.784C350.099 436.584 349.699 436.084 348.899 436.084H348.399V440.084H347.399V431.184ZM348.399 435.284H348.899C349.899 435.284 350.499 434.584 350.499 433.484C350.499 432.484 350.099 431.784 348.999 431.784C348.799 431.784 348.599 431.784 348.399 431.884V435.284Z" fill="black"/>
<path fill-rule="evenodd" clip-rule="evenodd" d="M353.6 436.884C353.6 438.884 354.4 439.284 355.1 439.284C355.6 439.284 356 439.184 356.2 439.084L356.4 439.784C356 439.984 355.5 440.184 355 440.184C353.4 440.184 352.6 438.884 352.6 436.884C352.6 434.784 353.5 433.484 354.8 433.484C356.1 433.484 356.6 434.884 356.6 436.284C356.6 436.551 356.6 436.751 356.6 436.884H353.6ZM355.7 436.184C355.7 434.884 355.2 434.284 354.7 434.284C354 434.284 353.7 435.284 353.6 436.184H355.7Z" fill="black"/>
<path d="M357.8 435.284C357.8 434.484 357.8 434.084 357.8 433.584H358.7V434.384C359 433.784 359.5 433.484 360.2 433.484C361.1 433.484 361.8 434.184 361.8 435.684V440.084H360.8V435.884C360.8 435.084 360.6 434.384 359.9 434.384C359.4 434.384 359 434.684 358.9 435.384C358.833 435.584 358.8 435.784 358.8 435.984V440.084H357.8V435.284Z" fill="black"/>
<path fill-rule="evenodd" clip-rule="evenodd" d="M367.2 430.784V438.484C367.2 438.984 367.2 439.684 367.3 440.084H366.4L366.3 439.284C366.1 439.684 365.6 440.184 364.9 440.184C363.8 440.184 363 438.984 363 436.884C363 434.584 364 433.484 365 433.484C365.5 433.484 365.9 433.684 366.2 434.284V430.784H367.2ZM366.2 436.084C366.2 435.884 366.2 435.718 366.2 435.584C366.1 434.984 365.7 434.384 365.2 434.384C364.3 434.384 364 435.584 364 436.884C364 438.184 364.4 439.284 365.1 439.284C365.5 439.284 365.9 439.084 366.1 438.184C366.167 438.051 366.2 437.918 366.2 437.784V436.084Z" fill="black"/>
<path fill-rule="evenodd" clip-rule="evenodd" d="M369.399 436.884C369.499 438.884 370.199 439.284 370.999 439.284C371.399 439.284 371.799 439.184 372.099 439.084L372.199 439.784C371.899 439.984 371.299 440.184 370.799 440.184C369.199 440.184 368.399 438.884 368.399 436.884C368.399 434.784 369.299 433.484 370.599 433.484C371.899 433.484 372.499 434.884 372.499 436.284C372.499 436.551 372.499 436.751 372.499 436.884H369.399ZM371.399 436.184C371.399 434.884 370.899 434.284 370.399 434.284C369.799 434.284 369.399 435.284 369.399 436.184H371.399Z" fill="black"/>
<path d="M373.6 435.284C373.6 434.684 373.6 434.084 373.6 433.584H374.5L374.6 434.584C374.8 433.984 375.4 433.484 376 433.484C376.066 433.484 376.133 433.484 376.2 433.484V434.584C376.133 434.518 376.066 434.484 376 434.484C375.3 434.484 374.8 435.084 374.7 435.884C374.7 436.084 374.7 436.284 374.7 436.484V440.084H373.6V435.284Z" fill="black"/>
<path d="M381.799 436.184V436.984H378.899V436.184H381.799Z" fill="black"/>
<path fill-rule="evenodd" clip-rule="evenodd" d="M387.099 435.684C387.099 438.884 386.099 440.184 384.799 440.184C383.499 440.184 382.699 438.584 382.699 435.684C382.699 432.784 383.499 431.284 384.899 431.284C386.399 431.284 387.099 432.884 387.099 435.684ZM383.699 435.684C383.699 437.784 383.999 439.284 384.899 439.284C385.699 439.284 386.099 437.784 386.099 435.684C386.099 433.684 385.699 432.084 384.899 432.084C384.099 432.084 383.699 433.584 383.699 435.684Z" fill="black"/>
<path d="M392.2 431.384V431.984L389.4 440.084H388.4L391.1 432.284H388V431.384H392.2Z" fill="black"/>
<path fill-rule="evenodd" clip-rule="evenodd" d="M396 440.084V439.384H395.9C395.6 439.884 395.2 440.184 394.6 440.184C393.8 440.184 393.1 439.384 393.1 438.284C393.1 436.684 394.4 435.984 395.8 435.984V435.784C395.8 434.884 395.6 434.284 394.8 434.284C394.4 434.284 394.1 434.384 393.7 434.584L393.5 433.884C393.8 433.684 394.4 433.484 395 433.484C396.3 433.484 396.9 434.284 396.9 435.784V438.584C396.9 439.084 396.9 439.684 397 440.084H396ZM395.8 436.684C395.3 436.684 394 436.784 394 438.184C394 439.084 394.5 439.384 394.8 439.384C395.3 439.384 395.7 438.984 395.8 438.384C395.8 438.251 395.8 438.118 395.8 437.984V436.684Z" fill="black"/>
<path fill-rule="evenodd" clip-rule="evenodd" d="M398.4 435.584C398.4 434.584 398.4 433.984 398.3 433.584H399.3V434.384C399.7 433.684 400.2 433.484 400.7 433.484C401.8 433.484 402.6 434.684 402.6 436.784C402.6 439.184 401.6 440.184 400.6 440.184C400 440.184 399.6 439.784 399.5 439.384H399.4V442.584H398.4V435.584ZM399.4 437.684C399.4 437.884 399.433 438.084 399.5 438.284C399.7 439.184 400.1 439.384 400.4 439.384C401.3 439.384 401.5 438.184 401.5 436.884C401.5 435.484 401.2 434.384 400.4 434.384C399.9 434.384 399.5 434.984 399.5 435.584C399.433 435.718 399.4 435.884 399.4 436.084V437.684Z" fill="black"/>
<path d="M905.3 365.384H903.5V248.784H905.3V365.384Z" fill="#272425"/>
<path d="M894.9 260.984C894.9 260.784 894.934 260.617 895 260.484L903.6 246.984C903.8 246.684 904.1 246.584 904.4 246.584C904.7 246.584 905 246.684 905.2 246.984L913.8 260.484C914.1 260.884 913.9 261.484 913.5 261.784C913.1 262.084 912.5 261.884 912.2 261.484L904.4 249.284L896.6 261.484C896.3 261.884 895.7 262.084 895.3 261.784C895 261.584 894.9 261.284 894.9 260.984Z" fill="#272425"/>
<path d="M895.3 352.384C895.7 352.184 896.3 352.284 896.6 352.684L904.4 364.984L912.2 352.684C912.5 352.284 913.1 352.184 913.5 352.384C913.9 352.684 914.1 353.284 913.8 353.784L905.2 367.284C905 367.484 904.7 367.684 904.4 367.684C904.1 367.684 903.8 367.484 903.6 367.284L895 353.784C894.934 353.584 894.9 353.384 894.9 353.184C894.9 352.884 895 352.584 895.3 352.384Z" fill="#272425"/>
<path d="M857.3 368.184H855.4V271.384H857.3V368.184Z" fill="#272425"/>
<path d="M846.801 283.484C846.801 283.351 846.867 283.184 847.001 282.984L855.601 269.484C855.801 269.284 856.101 269.084 856.401 269.084C856.701 269.084 857.001 269.284 857.201 269.484L865.801 282.984C866.101 283.484 865.901 284.084 865.501 284.284C865.101 284.584 864.501 284.484 864.201 284.084L856.401 271.784L848.601 284.084C848.301 284.484 847.701 284.584 847.301 284.284C847.001 284.184 846.801 283.884 846.801 283.484Z" fill="#272425"/>
<path d="M847.301 355.184C847.701 354.984 848.301 355.084 848.601 355.484L856.401 367.784L864.201 355.484C864.501 355.084 865.101 354.984 865.501 355.184C865.901 355.484 866.101 356.084 865.801 356.484L857.201 369.984C857.001 370.284 856.701 370.484 856.401 370.484C856.101 370.484 855.801 370.284 855.601 369.984L847.001 356.484C846.867 356.351 846.801 356.184 846.801 355.984C846.801 355.684 847.001 355.384 847.301 355.184Z" fill="#272425"/>
<path d="M76.9 353.984H75V254.384H76.9V353.984Z" fill="#272425"/>
<path d="M66.4004 266.584C66.4004 266.384 66.4671 266.217 66.6004 266.084L75.2004 252.584C75.4004 252.284 75.7004 252.084 76.0004 252.084C76.3004 252.084 76.6004 252.284 76.8004 252.584L85.4004 266.084C85.7004 266.484 85.5004 267.084 85.1004 267.384C84.7004 267.684 84.1004 267.484 83.8004 267.084L76.0004 254.884L68.2004 267.084C67.9004 267.484 67.3004 267.684 66.9004 267.384C66.6004 267.184 66.4004 266.884 66.4004 266.584Z" fill="#272425"/>
<path d="M66.9004 341.084C67.3004 340.784 67.9004 340.884 68.2004 341.384L76.0004 353.584L83.8004 341.384C84.1004 340.884 84.7004 340.784 85.1004 341.084C85.5004 341.384 85.7004 341.984 85.4004 342.384L76.8004 355.884C76.6004 356.184 76.3004 356.284 76.0004 356.284C75.7004 356.284 75.4004 356.184 75.2004 355.884L66.6004 342.384C66.4671 342.184 66.4004 342.017 66.4004 341.884C66.4004 341.584 66.6004 341.284 66.9004 341.084Z" fill="#272425"/>
<path d="M54.0002 353.084H52.2002V184.184H54.0002V353.084Z" fill="#272425"/>
<path d="M43.6006 196.284C43.6006 196.151 43.6339 195.984 43.7006 195.784L52.3006 182.284C52.5006 182.084 52.8006 181.884 53.1006 181.884C53.4006 181.884 53.7006 182.084 53.9006 182.284L62.5006 195.784C62.8006 196.284 62.6006 196.784 62.2006 197.084C61.8006 197.384 61.2006 197.284 60.9006 196.784L53.1006 184.584L45.3006 196.784C45.0006 197.284 44.4006 197.384 44.0006 197.084C43.7006 196.884 43.6006 196.584 43.6006 196.284Z" fill="#272425"/>
<path d="M44.0006 340.184C44.4006 339.884 45.0006 339.984 45.3006 340.484L53.1006 352.684L60.9006 340.484C61.2006 339.984 61.8006 339.884 62.2006 340.184C62.6006 340.484 62.8006 341.084 62.5006 341.484L53.9006 354.984C53.7006 355.284 53.4006 355.384 53.1006 355.384C52.8006 355.384 52.5006 355.284 52.3006 354.984L43.7006 341.484C43.6339 341.284 43.6006 341.118 43.6006 340.984C43.6006 340.684 43.7006 340.384 44.0006 340.184Z" fill="#272425"/>
<path d="M662.7 421.484H584.3V352.884H586.2V419.584H662.7V421.484Z" fill="#272425"/>
<path d="M575.7 364.984C575.7 364.851 575.767 364.684 575.9 364.484L584.5 350.984C584.7 350.784 585 350.584 585.3 350.584C585.6 350.584 585.9 350.784 586.1 350.984L594.7 364.484C595 364.984 594.8 365.584 594.4 365.784C593.9 366.084 593.4 365.984 593.1 365.584L585.3 353.284L577.5 365.584C577.2 365.984 576.6 366.084 576.2 365.784C575.9 365.684 575.7 365.384 575.7 364.984Z" fill="#272425"/>
<path d="M301 437.884H284.8V352.884H286.7V435.984H301V437.884Z" fill="#272425"/>
<path d="M276.2 365.084C276.2 364.884 276.267 364.684 276.4 364.484L285 350.984C285.2 350.784 285.5 350.584 285.8 350.584C286.1 350.584 286.4 350.784 286.6 350.984L295.2 364.484C295.5 364.984 295.3 365.584 294.9 365.884C294.5 366.084 293.9 365.984 293.6 365.584L285.8 353.284L278 365.584C277.7 365.984 277.1 366.084 276.7 365.884C276.4 365.684 276.2 365.384 276.2 365.084Z" fill="#272425"/>
<path d="M625.9 201.284L624.3 200.384L657.5 143.284H683.4V145.184H658.6L625.9 201.284Z" fill="#272425"/>
<path d="M639.5 195.084C639.433 195.284 639.3 195.417 639.1 195.484L624.9 202.784C624.6 202.984 624.3 202.984 624 202.784C623.7 202.684 623.5 202.384 623.5 201.984L622.9 185.984C622.8 185.484 623.2 185.084 623.8 185.084C624.3 184.984 624.7 185.384 624.8 185.984L625.3 200.484L638.2 193.784C638.7 193.584 639.3 193.684 639.5 194.184C639.7 194.484 639.6 194.884 639.5 195.084Z" fill="#272425"/>
</svg>
